<?xml version="1.0" encoding="UTF-8"?>
<svg width="196px" height="223px" viewBox="0 0 196 223" version="1.1" xmlns="http://www.w3.org/2000/svg" xmlns:xlink="http://www.w3.org/1999/xlink">
    <title>Artboard</title>
    <g id="Artboard" stroke="none" stroke-width="1" fill="none" fill-rule="evenodd">
        <g id="􀈑" transform="translate(0.160156, -0.406250)" fill="#DA2526" fill-rule="nonzero">
            <path d="M53.0273438,223.144531 L142.96875,223.144531 C158.789062,223.144531 168.847656,213.964844 169.53125,198.046875 L176.074219,58.4960938 L186.035156,58.4960938 C191.601562,58.4960938 195.898438,54.296875 195.898438,48.7304688 C195.898438,43.2617188 191.601562,39.0625 186.035156,39.0625 L143.554688,39.0625 L143.554688,24.7070312 C143.554688,9.08203125 133.691406,0 116.503906,0 L79.296875,0 C62.0117188,0 52.1484375,9.08203125 52.1484375,24.7070312 L52.1484375,39.0625 L9.86328125,39.0625 C4.39453125,39.0625 0,43.2617188 0,48.7304688 C0,54.296875 4.39453125,58.4960938 9.86328125,58.4960938 L19.8242188,58.4960938 L26.3671875,198.144531 C27.1484375,214.0625 37.0117188,223.144531 53.0273438,223.144531 Z M72.5585938,25.4882812 C72.5585938,20.8984375 75.6835938,17.96875 80.7617188,17.96875 L115.039062,17.96875 C120.019531,17.96875 123.242188,20.8984375 123.242188,25.4882812 L123.242188,39.0625 L72.5585938,39.0625 L72.5585938,25.4882812 Z M55.46875,203.515625 C50.1953125,203.515625 46.5820312,199.707031 46.3867188,193.945312 L39.9414062,58.4960938 L155.664062,58.4960938 L149.511719,193.945312 C149.316406,199.804688 145.703125,203.515625 140.332031,203.515625 L55.46875,203.515625 Z M69.2382812,188.574219 C73.828125,188.574219 76.6601562,185.644531 76.5625,181.445312 L73.6328125,81.0546875 C73.5351562,76.8554688 70.5078125,74.0234375 66.2109375,74.0234375 C61.8164063,74.0234375 58.984375,76.8554688 59.0820313,81.1523438 L62.0117188,181.542969 C62.2070313,185.742188 65.0390625,188.574219 69.2382812,188.574219 Z M97.9492188,188.574219 C102.34375,188.574219 105.273438,185.742188 105.273438,181.542969 L105.273438,81.0546875 C105.273438,76.8554688 102.34375,74.0234375 97.9492188,74.0234375 C93.5546875,74.0234375 90.625,76.8554688 90.625,81.0546875 L90.625,181.542969 C90.625,185.742188 93.5546875,188.574219 97.9492188,188.574219 Z M126.660156,188.574219 C130.859375,188.574219 133.691406,185.742188 133.886719,181.542969 L136.816406,81.1523438 C136.914062,76.953125 134.082031,74.1210938 129.6875,74.1210938 C125.390625,74.1210938 122.363281,76.8554688 122.265625,81.0546875 L119.335937,181.445312 C119.238281,185.644531 122.070312,188.574219 126.660156,188.574219 Z" id="Shape"></path>
        </g>
    </g>
</svg>