<?xml version="1.0" encoding="UTF-8"?>
<svg width="140px" height="100px" viewBox="0 0 140 100" version="1.1" xmlns="http://www.w3.org/2000/svg" xmlns:xlink="http://www.w3.org/1999/xlink">
    <title>settings/img/empty</title>
    <g id="/settings/img/empty" stroke="none" stroke-width="1" fill="none" fill-rule="evenodd">
        <g id="Start-by-adding-your" transform="translate(-0.294000, 16.850000)" fill="#000000" fill-rule="nonzero">
            <path d="M10.08,8.512 C10.08,8.624 10.0193333,8.75933333 9.898,8.918 C9.74866667,9.114 9.56666667,9.268 9.352,9.38 C9.27733333,9.44533333 9.198,9.48266667 9.114,9.492 C8.946,9.604 8.78266667,9.66466667 8.624,9.674 C8.55866667,9.73933333 8.44666667,9.8 8.288,9.856 L8.036,9.842 L7.784,10.052 L7.518,9.996 L7.434,10.01 L7.224,10.038 C7.084,10.0566667 6.96733333,10.066 6.874,10.066 C6.85533333,10.066 6.82266667,10.0613333 6.776,10.052 C6.72933333,10.052 6.692,10.052 6.664,10.052 L6.468,10.122 L6.188,10.15 L5.866,10.136 L5.712,10.206 L5.754,10.248 C5.53933333,10.248 5.37133333,10.2666667 5.25,10.304 L5.18,10.29 L4.606,10.248 L3.794,10.22 L3.528,10.178 C3.444,10.2153333 3.346,10.234 3.234,10.234 C3.10333333,10.234 2.968,10.192 2.828,10.108 L2.562,10.206 L2.422,10.08 C2.03,10.0706667 1.80133333,10.0333333 1.736,9.968 L1.68,9.94 C1.708,9.94 1.62866667,9.94933333 1.442,9.968 L0.896,9.604 L0.644,9.548 C0.485333333,9.47333333 0.35,9.34266667 0.238,9.156 C0.144666667,8.99733333 0.098,8.84333333 0.098,8.694 C0.098,8.59133333 0.144666667,8.40933333 0.238,8.148 L0.518,7.84 L0.854,7.854 C0.928666667,7.75133333 1.036,7.7 1.176,7.7 C1.47466667,7.7 1.624,7.938 1.624,8.414 C1.428,8.46066667 1.31133333,8.498 1.274,8.526 C1.22733333,8.582 1.15733333,8.64266667 1.064,8.708 L1.064,8.75 L1.19,8.82 L1.358,9.002 L1.904,8.974 L2.366,9.114 L3.094,9.1 L3.36,9.268 L3.486,9.198 C3.542,9.198 3.612,9.212 3.696,9.24 L4.06,9.282 L4.088,9.352 L4.312,9.352 C4.52666667,9.28666667 4.648,9.254 4.676,9.254 C4.72266667,9.254 4.77866667,9.268 4.844,9.296 C4.928,9.27733333 5.03533333,9.268 5.166,9.268 C5.25933333,9.268 5.34333333,9.27733333 5.418,9.296 C5.48333333,9.25866667 5.558,9.24 5.642,9.24 C5.74466667,9.24 5.83333333,9.25866667 5.908,9.296 L6.216,9.212 L6.37,9.044 L6.902,9.1 C7.17266667,9.016 7.38733333,8.974 7.546,8.974 L7.616,8.974 C7.68133333,8.92733333 7.73733333,8.904 7.784,8.904 C7.812,8.904 7.84466667,8.91333333 7.882,8.932 C7.882,8.932 7.92866667,8.91333333 8.022,8.876 L8.022,8.764 L8.316,8.764 C8.38133333,8.68 8.498,8.63333333 8.666,8.624 C8.79666667,8.50266667 8.904,8.43733333 8.988,8.428 C8.988,8.428 9.02533333,8.372 9.1,8.26 C9.1,8.176 8.80133333,7.994 8.204,7.714 L8.092,7.63 C7.896,7.61133333 7.742,7.57866667 7.63,7.532 C7.56466667,7.532 7.504,7.52733333 7.448,7.518 L7.42,7.518 C7.37333333,7.518 7.19133333,7.462 6.874,7.35 C6.77133333,7.27533333 6.664,7.238 6.552,7.238 C6.51466667,7.238 6.45866667,7.24733333 6.384,7.266 L6.104,7.266 L6.062,7.224 C5.91266667,7.196 5.796,7.154 5.712,7.098 L5.544,7.154 L5.11,6.944 L4.83,6.944 L4.648,6.832 L4.368,6.832 L4.326,6.762 L4.102,6.762 L3.906,6.538 L3.808,6.538 C3.51866667,6.538 3.29466667,6.482 3.136,6.37 L3.108,6.342 C2.90266667,6.27666667 2.75333333,6.174 2.66,6.034 L2.422,5.81 L2.268,5.446 L2.1,5.222 L2.17,4.648 L2.506,4.256 C2.562,4.24666667 2.604,4.186 2.632,4.074 C2.66,4.06466667 2.70666667,4.04133333 2.772,4.004 L3.486,3.612 C3.57933333,3.63066667 3.64466667,3.64 3.682,3.64 C3.81266667,3.64 3.948,3.59333333 4.088,3.5 L4.172,3.5 L4.172,3.528 L4.312,3.402 L4.382,3.402 C4.68066667,3.29 4.928,3.234 5.124,3.234 L5.194,3.234 L5.32,3.248 L5.53,3.122 C5.586,3.11266667 5.66066667,3.108 5.754,3.108 L5.838,3.108 C5.90333333,3.108 6.01766667,3.09866667 6.181,3.08 C6.34433333,3.06133333 6.47266667,3.04733333 6.566,3.038 L6.818,3.024 L7.196,2.828 C7.224,2.84666667 7.28466667,2.91666667 7.378,3.038 L7.686,3.038 C7.742,3.038 7.84466667,3.066 7.994,3.122 L8.092,3.122 C8.316,3.122 8.50266667,3.16866667 8.652,3.262 C9.14666667,3.38333333 9.394,3.63066667 9.394,4.004 C9.394,4.32133333 9.13733333,4.51266667 8.624,4.578 L8.512,4.41 C8.484,4.40066667 8.435,4.382 8.365,4.354 C8.295,4.326 8.24133333,4.30733333 8.204,4.298 L7.896,4.298 L7.756,4.144 L7.532,4.172 L7.406,4.312 L7.07,4.074 L6.706,4.13 L6.272,4.032 C6.00133333,4.05066667 5.77266667,4.10666667 5.586,4.2 L5.558,4.214 C5.53,4.23266667 5.49966667,4.249 5.467,4.263 C5.43433333,4.277 5.41333333,4.284 5.404,4.284 L5.208,4.2 L4.816,4.382 L4.088,4.578 L3.92,4.536 L3.612,4.732 L3.472,4.732 L3.388,4.858 L3.094,5.054 L3.122,5.138 C3.122,5.138 3.17333333,5.18933333 3.276,5.292 L3.416,5.334 L3.64,5.474 L4.074,5.628 L4.284,5.642 L4.662,5.866 L4.774,5.824 C5.04466667,5.88 5.22666667,5.95466667 5.32,6.048 L5.362,6.09 L5.39,6.09 C5.39,6.09 5.48333333,6.146 5.67,6.258 L5.768,6.16 L6.104,6.174 L6.16,6.202 L6.356,6.202 L6.552,6.356 L6.65,6.356 C6.80866667,6.356 6.94866667,6.37933333 7.07,6.426 C7.07933333,6.426 7.126,6.42133333 7.21,6.412 C7.378,6.412 7.56466667,6.48666667 7.77,6.636 L7.938,6.594 L8.064,6.65 L8.302,6.65 L8.708,6.93 L9.128,6.972 L9.296,7.196 C9.61333333,7.392 9.821,7.56233333 9.919,7.707 C10.017,7.85166667 10.066,8.05933333 10.066,8.33 C10.066,8.34866667 10.0706667,8.37666667 10.08,8.414 C10.08,8.45133333 10.08,8.484 10.08,8.512 Z" id="Path"></path>
            <path d="M15.638,5.124 C15.638,5.208 15.554,5.28733333 15.386,5.362 C15.3486667,5.40866667 15.2786667,5.45066667 15.176,5.488 C15.0453333,5.544 14.952,5.59066667 14.896,5.628 L14.602,5.53 C14.4526667,5.642 14.2613333,5.698 14.028,5.698 L13.86,5.656 L13.734,5.768 L13.356,5.768 L13.118,5.922 C13.0153333,5.88466667 12.9173333,5.866 12.824,5.866 C12.796,5.88466667 12.7306667,5.90333333 12.628,5.922 C12.5813333,5.922 12.53,5.908 12.474,5.88 L12.432,6.412 L12.446,6.804 L12.404,7.294 L12.432,7.826 L12.474,8.078 L12.474,8.274 L12.67,8.694 C12.642,8.722 12.628,8.75466667 12.628,8.792 C12.628,8.85733333 12.7306667,8.90866667 12.936,8.946 L12.964,9.114 L13.062,9.156 L13.23,9.268 L13.342,9.352 C13.4353333,9.33333333 13.5006667,9.324 13.538,9.324 C13.622,9.324 13.706,9.338 13.79,9.366 C13.8273333,9.34733333 13.9066667,9.282 14.028,9.17 C14.112,9.09533333 14.1913333,9.058 14.266,9.058 C14.2753333,9.058 14.2893333,9.058 14.308,9.058 C14.3266667,9.06733333 14.3406667,9.072 14.35,9.072 C14.434,8.89466667 14.5833333,8.778 14.798,8.722 C14.994,8.722 15.1573333,8.78266667 15.288,8.904 L15.288,9.002 C15.288,9.31933333 15.176,9.52 14.952,9.604 C14.868,9.8 14.6906667,9.926 14.42,9.982 L14.252,10.136 L14.07,10.136 L13.748,10.22 C13.6733333,10.2386667 13.566,10.248 13.426,10.248 C13.3513333,10.248 13.272,10.2293333 13.188,10.192 L13.006,10.192 L12.516,9.926 L12.39,9.884 L12.096,9.492 L11.928,9.31 L11.62,8.61 L11.508,7.952 L11.536,7.784 L11.424,7.63 L11.494,7.434 L11.424,7.126 L11.522,7.028 L11.55,6.846 L11.508,6.678 L11.536,6.426 L11.48,6.202 L11.55,6.132 L11.55,5.908 L11.452,5.866 L11.186,5.922 L10.934,5.74 L10.892,5.74 C10.612,5.74 10.472,5.59066667 10.472,5.292 L10.472,5.25 L10.304,4.984 L10.57,4.732 L10.92,4.788 L11.102,4.76 L11.368,4.83 L11.662,4.83 L11.662,4.55 L11.48,4.158 L11.662,4.06 L11.592,3.85 L11.606,3.416 L11.494,3.234 C11.4286667,3.13133333 11.396,3.038 11.396,2.954 C11.396,2.85133333 11.4193333,2.76733333 11.466,2.702 L11.508,2.506 L11.62,2.394 C11.872,2.34733333 12.04,2.324 12.124,2.324 C12.4226667,2.324 12.586,2.45933333 12.614,2.73 L12.572,2.8 C12.628,2.884 12.656,2.96333333 12.656,3.038 C12.656,3.04733333 12.6513333,3.07066667 12.642,3.108 L12.614,3.192 L12.6,3.29 L12.656,3.472 L12.642,3.542 L12.67,3.738 L12.544,3.906 L12.614,4.186 L12.558,4.522 L12.67,4.648 L12.558,4.9 L12.992,4.844 L13.762,4.914 L14.378,4.816 L14.588,4.83 L14.658,4.816 L15.204,4.816 C15.4933333,4.816 15.638,4.91866667 15.638,5.124 Z" id="Path"></path>
            <path d="M21.812,4.48 L21.672,4.662 L21.784,4.998 L21.602,5.208 L21.532,5.502 L21.49,5.572 L21.518,5.642 C21.518,5.77266667 21.4853333,5.87066667 21.42,5.936 L21.392,5.978 L21.392,6.034 C21.42,6.09933333 21.434,6.16 21.434,6.216 C21.434,6.26266667 21.4293333,6.29533333 21.42,6.314 L21.434,6.37 L21.378,6.524 L21.42,6.692 L21.308,6.804 L21.35,7 L21.434,7.098 L21.308,7.21 L21.308,7.434 L21.21,7.658 L21.28,7.882 L21.196,7.994 L21.336,8.092 L21.14,8.414 L21.126,8.456 L21.266,8.484 L21.168,8.806 L21.168,8.862 C21.168,8.92733333 21.1633333,8.97866667 21.154,9.016 L21.168,9.058 L21.392,9.086 L21.574,9.366 L21.476,9.576 L21.63,9.562 C21.686,9.674 21.7186667,9.772 21.728,9.856 L21.518,10.066 C21.4526667,10.1313333 21.3593333,10.1966667 21.238,10.262 L21,10.388 L20.93,10.318 L20.79,10.402 L20.356,9.898 L20.356,9.66 C20.3,9.47333333 20.272,9.30066667 20.272,9.142 L20.272,9.058 L20.188,8.232 L20.3,7.644 L20.216,7.308 L19.978,7.7 L19.852,8.064 L19.74,8.12 L19.544,8.428 L19.194,8.75 L19.096,8.918 L18.788,9.184 L18.718,9.366 L18.27,9.646 L17.794,10.178 L17.528,10.234 L17.346,10.374 C17.1126667,10.3646667 16.9353333,10.276 16.814,10.108 C16.394,9.90266667 16.1746667,9.60866667 16.156,9.226 L16.226,9.184 L16.212,9.1 L16.198,8.932 L16.114,8.75 L16.198,8.554 L16.226,8.26 L16.324,7.798 C16.324,7.78866667 16.324,7.77 16.324,7.742 C16.3146667,7.72333333 16.31,7.70466667 16.31,7.686 C16.31,7.64866667 16.3193333,7.602 16.338,7.546 C16.3286667,7.52733333 16.324,7.49 16.324,7.434 C16.324,7.36866667 16.352,7.26133333 16.408,7.112 L16.506,7.07 C16.45,7.02333333 16.422,6.972 16.422,6.916 C16.422,6.87866667 16.4266667,6.85066667 16.436,6.832 C16.4266667,6.804 16.422,6.77133333 16.422,6.734 C16.422,6.622 16.478,6.538 16.59,6.482 C16.618,6.38866667 16.6693333,6.29533333 16.744,6.202 L16.674,6.09 L16.842,5.88 L16.842,5.824 C16.842,5.64666667 16.9026667,5.48333333 17.024,5.334 L17.01,5.082 L17.066,5.026 C17.066,5.01666667 17.066,5.00266667 17.066,4.984 C17.0566667,4.96533333 17.052,4.95133333 17.052,4.942 C17.052,4.886 17.0706667,4.83933333 17.108,4.802 L17.108,4.718 C17.1453333,4.62466667 17.2433333,4.48466667 17.402,4.298 C17.5606667,4.11133333 17.6773333,3.948 17.752,3.808 L17.822,3.878 L17.976,3.808 L18.046,3.78 L18.508,3.57 L19.586,3.626 L19.586,3.724 L19.922,3.794 C20.1366667,3.794 20.2766667,3.864 20.342,4.004 C20.342,3.976 20.3466667,3.94333333 20.356,3.906 C20.356,3.878 20.356,3.85933333 20.356,3.85 L20.65,4.116 L20.916,4.172 L21.42,4.046 L21.602,4.396 L21.812,4.48 Z M20.482,5.208 L20.426,5.11 L20.314,5.082 L19.88,4.732 L19.6,4.69 L19.376,4.69 L19.348,4.662 L19.236,4.704 L19.11,4.634 L18.746,4.634 L18.788,4.69 L18.466,4.802 L18.41,4.872 L18.368,4.886 C18.2,5.026 18.0833333,5.14266667 18.018,5.236 L17.92,5.572 L17.864,5.698 L18.004,5.894 L17.766,6.076 L17.794,6.132 C17.6913333,6.30933333 17.64,6.482 17.64,6.65 L17.528,6.79 L17.528,7.042 L17.416,7.168 L17.388,7.294 L17.346,7.322 L17.346,7.518 L17.304,7.588 C17.304,7.7 17.2946667,7.78866667 17.276,7.854 L17.304,7.924 L17.178,8.19 L17.234,8.274 L17.136,8.414 L17.234,8.68 L17.08,8.876 L17.108,9.142 L17.108,9.184 L17.164,9.212 L17.234,9.198 C17.2806667,9.15133333 17.3273333,9.10933333 17.374,9.072 L17.346,8.96 L17.542,8.932 L17.584,8.834 L18.41,8.162 L18.494,8.134 L18.592,7.896 C18.648,7.87733333 18.7273333,7.84 18.83,7.784 L18.914,7.56 L19.026,7.56 L18.984,7.322 L19.18,7.294 C19.1986667,7.25666667 19.229,7.21 19.271,7.154 C19.313,7.098 19.3573333,7.04666667 19.404,7 L20.118,6.048 L20.23,5.838 L20.216,5.782 L20.314,5.628 L20.342,5.474 L20.468,5.362 L20.482,5.208 Z" id="Shape"></path>
            <path d="M28.77,4.942 L28.658,5.404 L28.14,5.474 L27.86,5.656 L27.678,5.572 L27.482,5.684 L27.272,5.768 L27.132,5.866 L27.132,5.922 L26.838,6.062 L26.642,6.314 L26.544,6.314 C26.3946667,6.47266667 26.2873333,6.57066667 26.222,6.608 L26.026,6.93 L25.956,6.958 C25.928,7.03266667 25.8953333,7.14466667 25.858,7.294 L25.662,7.364 L25.578,7.532 L25.466,7.672 L25.438,7.882 L25.326,7.924 L25.326,8.134 L25.284,8.176 C25.312,8.22266667 25.3446667,8.274 25.382,8.33 L25.172,8.414 L25.144,8.596 L25.004,8.834 L25.088,9.016 L24.906,9.268 C24.9246667,9.36133333 24.934,9.42666667 24.934,9.464 C24.934,9.47333333 24.934,9.492 24.934,9.52 C24.9246667,9.548 24.92,9.57133333 24.92,9.59 L24.948,9.716 L25.186,9.968 L25.004,10.29 L24.836,10.416 L24.444,10.612 L23.926,10.402 L23.926,10.08 L23.87,9.954 L23.912,9.744 C23.8933333,9.59466667 23.884,9.48266667 23.884,9.408 C23.884,9.38 23.8886667,9.34266667 23.898,9.296 C23.898,9.24933333 23.898,9.21666667 23.898,9.198 L23.884,9.058 C23.8186667,8.99266667 23.786,8.918 23.786,8.834 C23.786,8.75933333 23.8186667,8.67533333 23.884,8.582 C23.884,8.53533333 23.8746667,8.39533333 23.856,8.162 L23.898,8.12 L23.856,7.938 L23.884,7.77 L23.856,7.672 L23.898,7.35 L23.814,7.21 L23.87,7.056 L23.814,6.874 C23.8233333,6.818 23.828,6.74333333 23.828,6.65 C23.828,6.51 23.8093333,6.41666667 23.772,6.37 L23.828,6.286 L23.772,6.034 L23.646,5.852 L23.716,5.628 L23.66,5.544 L23.604,5.208 L23.604,5.096 C23.5573333,5.04 23.534,4.97 23.534,4.886 C23.534,4.69933333 23.7393333,4.54066667 24.15,4.41 L24.5,4.48 L24.57,4.746 L24.71,4.928 L24.668,5.306 C24.696,5.49266667 24.7286667,5.698 24.766,5.922 L24.808,6.146 C24.8173333,6.16466667 24.8266667,6.216 24.836,6.3 C24.836,6.356 24.8126667,6.41666667 24.766,6.482 L24.808,6.762 L24.78,7.07 L24.724,7.21 L24.766,7.266 L24.794,7.406 C24.85,7.34066667 24.8826667,7.27066667 24.892,7.196 L24.948,6.986 C24.976,6.93 25.018,6.888 25.074,6.86 L25.13,6.65 L25.326,6.538 L25.354,6.37 L25.508,6.202 L25.62,5.992 C25.7413333,5.86133333 25.858,5.77733333 25.97,5.74 L25.998,5.698 L26.124,5.502 L26.264,5.474 L26.306,5.432 L26.362,5.348 L26.516,5.264 L26.6,5.166 L26.684,5.18 L26.796,5.124 L26.852,5.04 L27.02,4.956 L27.258,4.802 L27.594,4.69 C27.7246667,4.67133333 27.7946667,4.662 27.804,4.662 C27.804,4.67133333 27.804,4.676 27.804,4.676 C27.7946667,4.676 27.79,4.68066667 27.79,4.69 L27.804,4.69 C27.8413333,4.69 27.8973333,4.67133333 27.972,4.634 C28.0186667,4.59666667 28.084,4.578 28.168,4.578 C28.2053333,4.578 28.2706667,4.58733333 28.364,4.606 C28.6066667,4.61533333 28.742,4.72733333 28.77,4.942 Z" id="Path"></path>
            <path d="M33.25,5.124 C33.25,5.208 33.166,5.28733333 32.998,5.362 C32.9606667,5.40866667 32.8906667,5.45066667 32.788,5.488 C32.6573333,5.544 32.564,5.59066667 32.508,5.628 L32.214,5.53 C32.0646667,5.642 31.8733333,5.698 31.64,5.698 L31.472,5.656 L31.346,5.768 L30.968,5.768 L30.73,5.922 C30.6273333,5.88466667 30.5293333,5.866 30.436,5.866 C30.408,5.88466667 30.3426667,5.90333333 30.24,5.922 C30.1933333,5.922 30.142,5.908 30.086,5.88 L30.044,6.412 L30.058,6.804 L30.016,7.294 L30.044,7.826 L30.086,8.078 L30.086,8.274 L30.282,8.694 C30.254,8.722 30.24,8.75466667 30.24,8.792 C30.24,8.85733333 30.3426667,8.90866667 30.548,8.946 L30.576,9.114 L30.674,9.156 L30.842,9.268 L30.954,9.352 C31.0473333,9.33333333 31.1126667,9.324 31.15,9.324 C31.234,9.324 31.318,9.338 31.402,9.366 C31.4393333,9.34733333 31.5186667,9.282 31.64,9.17 C31.724,9.09533333 31.8033333,9.058 31.878,9.058 C31.8873333,9.058 31.9013333,9.058 31.92,9.058 C31.9386667,9.06733333 31.9526667,9.072 31.962,9.072 C32.046,8.89466667 32.1953333,8.778 32.41,8.722 C32.606,8.722 32.7693333,8.78266667 32.9,8.904 L32.9,9.002 C32.9,9.31933333 32.788,9.52 32.564,9.604 C32.48,9.8 32.3026667,9.926 32.032,9.982 L31.864,10.136 L31.682,10.136 L31.36,10.22 C31.2853333,10.2386667 31.178,10.248 31.038,10.248 C30.9633333,10.248 30.884,10.2293333 30.8,10.192 L30.618,10.192 L30.128,9.926 L30.002,9.884 L29.708,9.492 L29.54,9.31 L29.232,8.61 L29.12,7.952 L29.148,7.784 L29.036,7.63 L29.106,7.434 L29.036,7.126 L29.134,7.028 L29.162,6.846 L29.12,6.678 L29.148,6.426 L29.092,6.202 L29.162,6.132 L29.162,5.908 L29.064,5.866 L28.798,5.922 L28.546,5.74 L28.504,5.74 C28.224,5.74 28.084,5.59066667 28.084,5.292 L28.084,5.25 L27.916,4.984 L28.182,4.732 L28.532,4.788 L28.714,4.76 L28.98,4.83 L29.274,4.83 L29.274,4.55 L29.092,4.158 L29.274,4.06 L29.204,3.85 L29.218,3.416 L29.106,3.234 C29.0406667,3.13133333 29.008,3.038 29.008,2.954 C29.008,2.85133333 29.0313333,2.76733333 29.078,2.702 L29.12,2.506 L29.232,2.394 C29.484,2.34733333 29.652,2.324 29.736,2.324 C30.0346667,2.324 30.198,2.45933333 30.226,2.73 L30.184,2.8 C30.24,2.884 30.268,2.96333333 30.268,3.038 C30.268,3.04733333 30.2633333,3.07066667 30.254,3.108 L30.226,3.192 L30.212,3.29 L30.268,3.472 L30.254,3.542 L30.282,3.738 L30.156,3.906 L30.226,4.186 L30.17,4.522 L30.282,4.648 L30.17,4.9 L30.604,4.844 L31.374,4.914 L31.99,4.816 L32.2,4.83 L32.27,4.816 L32.816,4.816 C33.1053333,4.816 33.25,4.91866667 33.25,5.124 Z" id="Path"></path>
            <path d="M42.896,7.966 L42.77,8.092 L42.812,8.428 L42.49,8.82 L42.49,8.988 L42.378,9.1 L42.462,9.226 L42.182,9.492 L42,9.8 L41.706,9.968 C41.594,10.08 41.4726667,10.1406667 41.342,10.15 L41.23,10.402 L41.09,10.276 L40.95,10.458 C40.95,10.4113333 40.9126667,10.3506667 40.838,10.276 L40.74,10.22 L40.628,10.346 L40.586,10.346 L40.474,10.486 L40.292,10.374 L39.998,10.5 L39.816,10.332 C39.788,10.3413333 39.746,10.346 39.69,10.346 C39.5406667,10.346 39.354,10.304 39.13,10.22 L38.934,10.122 L38.864,10.052 L38.64,9.968 L38.542,9.674 C38.3833333,9.66466667 38.22,9.62733333 38.052,9.562 L37.758,8.932 L37.8,8.834 L37.73,8.722 L37.73,8.47 L37.646,8.33 L37.702,8.162 C37.674,8.05933333 37.66,7.97066667 37.66,7.896 C37.66,7.87733333 37.6646667,7.85866667 37.674,7.84 C37.674,7.812 37.674,7.79333333 37.674,7.784 L37.674,7.35 L37.73,7.21 L37.744,6.384 L37.786,6.188 L37.716,6.104 L37.842,5.712 L37.8,5.586 L37.8,5.278 L37.87,5.194 L37.856,4.998 L37.8,4.858 L37.926,4.41 L37.828,3.85 L37.87,3.808 L37.87,3.626 C37.8793333,3.57933333 37.884,3.50466667 37.884,3.402 C37.884,3.27133333 37.8746667,3.16866667 37.856,3.094 L37.884,2.996 L37.772,2.59 C37.7906667,2.52466667 37.8233333,2.478 37.87,2.45 C37.8513333,2.422 37.828,2.38933333 37.8,2.352 C37.828,2.296 37.842,2.24 37.842,2.184 C37.842,2.10933333 37.8093333,2.02533333 37.744,1.932 C37.744,1.848 37.758,1.77333333 37.786,1.708 L37.73,1.568 L37.8,1.414 L37.576,0.938 L37.8,0.896 L37.8,0.868 L38.29,0.616 L38.542,0.91 L38.57,1.05 L38.78,1.204 L38.766,1.414 C38.766,1.48866667 38.7566667,1.59133333 38.738,1.722 C38.8033333,1.78733333 38.836,1.848 38.836,1.904 C38.836,1.932 38.8266667,1.96466667 38.808,2.002 L38.864,2.058 L38.808,2.282 L38.906,2.534 L38.892,2.632 L39.074,2.716 L38.976,2.898 L38.892,3.262 C38.8826667,3.318 38.864,3.402 38.836,3.514 C38.864,3.57 38.878,3.696 38.878,3.892 L38.85,4.004 L38.892,4.116 L38.822,4.34 C38.822,4.424 38.808,4.508 38.78,4.592 L38.766,4.634 C38.8126667,4.68066667 38.864,4.74133333 38.92,4.816 L38.766,5.11 L38.808,5.278 L38.78,5.362 C38.78,5.43666667 38.766,5.52533333 38.738,5.628 L38.752,5.684 L38.738,5.838 L38.724,6.048 L38.682,6.496 L38.864,6.538 L38.892,6.104 L38.99,5.81 L39.046,5.838 L39.13,5.628 C39.1673333,5.46 39.242,5.30133333 39.354,5.152 C39.3726667,5.11466667 39.4006667,5.07733333 39.438,5.04 L39.48,4.998 L39.48,5.026 L39.536,4.858 L39.704,4.676 L39.802,4.578 L39.816,4.522 L39.9,4.41 C39.9,4.28866667 39.942,4.2 40.026,4.144 L40.054,4.032 L40.236,3.976 L40.306,3.934 L40.334,3.85 L40.32,3.654 L40.53,3.612 L40.642,3.57 L40.544,3.472 L40.768,3.416 L41.006,3.234 L41.44,3.234 L41.706,3.388 L41.79,3.402 L42.028,3.738 L42.042,3.878 L42.154,3.892 L42.196,4.186 L42.336,4.298 L42.336,4.508 L42.42,4.606 L42.518,4.662 L42.574,5.11 L42.574,5.152 C42.574,5.19866667 42.602,5.26166667 42.658,5.341 C42.714,5.42033333 42.742,5.488 42.742,5.544 C42.742,5.6 42.728,5.656 42.7,5.712 L42.868,5.782 C42.8493333,5.91266667 42.8166667,6.01533333 42.77,6.09 L42.812,6.398 C42.8493333,6.49133333 42.868,6.56133333 42.868,6.608 C42.868,6.636 42.8586667,6.68733333 42.84,6.762 L42.826,7.364 L42.882,7.49 L42.826,7.714 L42.896,7.966 Z M41.958,6.916 L41.93,6.664 L41.93,6.426 L41.832,5.782 L41.706,5.32 L41.524,4.914 L41.216,4.424 L41.146,4.452 L41.09,4.522 L41.02,4.522 C40.9826667,4.69 40.88,4.77866667 40.712,4.788 C40.6373333,4.89066667 40.5393333,5.03066667 40.418,5.208 L40.25,5.362 L40.194,5.572 L40.054,5.74 L39.914,6.09 C39.914,6.24866667 39.8533333,6.42133333 39.732,6.608 L39.648,6.734 L39.662,6.958 L39.438,7.266 L39.326,7.756 L39.228,7.812 C39.228,7.82133333 39.2326667,7.84 39.242,7.868 C39.242,7.896 39.242,7.91933333 39.242,7.938 C39.242,8.106 39.2,8.274 39.116,8.442 L39.2,8.694 L39.032,8.764 L39.004,8.82 L38.892,8.932 L39.2,9.002 L39.382,9.1 L39.662,9.058 L39.914,9.17 L39.914,9.366 L39.97,9.422 L40.306,9.422 L40.53,9.38 C40.586,9.296 40.67,9.254 40.782,9.254 L40.824,9.254 L40.936,9.212 L40.88,9.044 L41.272,9.044 C41.356,8.80133333 41.51,8.58666667 41.734,8.4 L41.734,8.26 L41.902,7.952 L41.902,7.63 L41.944,7.266 L41.916,7.042 L41.958,6.916 Z" id="Shape"></path>
            <path d="M51.534,7.504 C51.506,7.60666667 51.464,7.72333333 51.408,7.854 L51.422,7.938 L51.52,8.442 L51.422,8.974 L51.464,9.226 L51.38,9.408 L51.436,10.024 L51.38,10.122 L51.38,10.528 L51.366,10.85 L51.408,10.99 L51.38,11.872 L51.492,12.124 L51.408,12.236 L51.45,12.474 L51.38,12.544 L51.45,12.782 L51.324,12.922 L51.324,13.02 L51.268,13.146 C51.24,13.3046667 51.1373333,13.5333333 50.96,13.832 L50.862,14.182 C50.7873333,14.2193333 50.7406667,14.2473333 50.722,14.266 L50.68,14.308 L50.554,14.476 L50.414,14.686 L50.176,14.812 C50.064,15.0173333 49.9333333,15.134 49.784,15.162 C49.7373333,15.2086667 49.7046667,15.2366667 49.686,15.246 L49.644,15.288 L49.448,15.372 L49.336,15.484 L49.196,15.484 L49.126,15.596 L48.874,15.54 L48.608,15.708 L48.356,15.652 L47.894,15.722 L47.796,15.708 L47.726,15.736 L47.264,15.652 L47.054,15.652 L46.97,15.568 L46.41,15.386 L45.934,15.316 L45.864,15.19 L45.612,15.162 L45.528,14.924 L45.36,14.882 L45.248,14.672 L44.982,14.574 L44.758,14.252 L44.352,14 L44.38,13.734 C44.3613333,13.7246667 44.3193333,13.5426667 44.254,13.188 C44.254,13.0386667 44.2866667,12.8566667 44.352,12.642 L44.352,12.516 L44.492,12.446 L44.576,12.208 L44.632,12.236 L44.772,12.012 L45.024,11.816 L45.22,11.76 L45.598,11.452 L45.962,11.48 C46.0553333,11.3866667 46.1766667,11.34 46.326,11.34 C46.5406667,11.4426667 46.648,11.5686667 46.648,11.718 C46.648,11.8113333 46.606,11.9046667 46.522,11.998 L46.326,12.096 L46.116,12.25 L45.906,12.306 L45.78,12.544 L45.57,12.544 L45.486,12.684 L45.304,12.838 L45.318,13.048 L45.206,13.244 L45.262,13.384 L45.36,13.608 L45.668,13.804 L45.738,14.014 L46.116,14.308 L46.326,14.322 L46.578,14.518 L46.83,14.518 L46.984,14.672 L47.18,14.658 L47.292,14.742 L47.964,14.714 L48.398,14.574 L48.664,14.588 L48.958,14.42 C49.0326667,14.392 49.098,14.378 49.154,14.378 C49.1726667,14.3686667 49.2053333,14.35 49.252,14.322 L49.322,14.21 L49.462,14.252 L49.518,14.196 L49.518,14.084 C49.5273333,14.028 49.588,13.9813333 49.7,13.944 C49.7373333,13.8506667 49.812,13.7713333 49.924,13.706 C49.952,13.6593333 49.9753333,13.5566667 49.994,13.398 L50.19,13.286 L50.232,13.188 C50.2693333,13.1133333 50.3066667,13.034 50.344,12.95 L50.358,12.908 L50.4,12.362 L50.456,12.32 L50.456,12.096 L50.4,11.886 L50.484,11.718 C50.4653333,11.5313333 50.456,11.4053333 50.456,11.34 C50.456,11.256 50.4606667,11.1603333 50.47,11.053 C50.4793333,10.9456667 50.484,10.8826667 50.484,10.864 L50.484,10.15 L50.386,9.968 L50.484,9.674 L50.456,9.394 L50.456,8.68 L50.414,8.498 L50.47,8.4 L50.47,8.218 C50.47,8.15266667 50.4746667,8.11066667 50.484,8.092 L50.372,7.77 L50.372,7.28 L50.218,7.532 L50.05,7.658 L49.882,7.826 L49.77,7.868 L49.728,8.036 L49.602,8.106 L49.588,8.148 L49.392,8.316 L49.126,8.638 L48.748,9.03 L48.608,9.072 L48.566,9.142 L48.146,9.45 L48.02,9.45 L47.88,9.59 L47.824,9.73 L47.516,9.828 L47.46,9.926 L47.25,9.954 L46.956,10.15 L46.718,10.206 L46.606,10.29 L46.452,10.318 L46.41,10.346 C46.2886667,10.4766667 46.0973333,10.542 45.836,10.542 C45.556,10.542 45.3366667,10.4533333 45.178,10.276 L44.87,9.814 L44.856,9.548 L44.688,9.044 L44.688,8.624 L44.632,8.456 L44.716,8.316 L44.646,8.008 L44.744,7.924 L44.758,7.784 L44.842,7.616 L44.814,7.322 L44.87,7.21 L44.87,7.112 C44.87,6.916 44.9026667,6.68733333 44.968,6.426 L44.926,6.048 L44.968,5.698 L44.842,5.194 L44.87,5.096 L44.814,5.012 L44.982,4.564 C45.0193333,4.41466667 45.038,4.26533333 45.038,4.116 C45.15,4.06 45.262,4.032 45.374,4.032 C45.458,4.032 45.542,4.046 45.626,4.074 L45.752,4.354 L45.99,4.522 C45.962,4.662 45.9386667,4.774 45.92,4.858 L46.046,5.068 L45.99,5.208 L46.172,5.362 L46.004,5.67 L46.088,6.034 L45.99,6.188 L46.004,6.216 L45.92,6.818 L45.92,7.364 L45.836,7.448 L45.78,7.938 L45.654,8.092 C45.654,8.13866667 45.6586667,8.19933333 45.668,8.274 C45.668,8.33933333 45.668,8.386 45.668,8.414 L45.766,8.666 L45.668,8.848 L45.696,9.072 L45.668,9.128 C45.6866667,9.24 45.696,9.296 45.696,9.296 L45.822,9.408 L45.92,9.38 L45.934,9.464 L46.032,9.324 L46.438,9.324 C46.494,9.268 46.564,9.22133333 46.648,9.184 C46.8626667,9.03466667 47.054,8.95066667 47.222,8.932 L47.236,8.75 C47.4973333,8.61 47.8286667,8.428 48.23,8.204 L48.286,8.092 C48.258,8.11066667 48.2346667,8.12466667 48.216,8.134 C48.244,8.11533333 48.3093333,8.07333333 48.412,8.008 L48.468,7.826 L48.566,7.672 L48.762,7.602 L48.874,7.434 L48.944,7.448 L49.028,7.392 L49.196,7.21 L49.266,7.196 L49.28,7.154 L49.532,6.888 L49.686,6.636 C49.7886667,6.608 49.8773333,6.54266667 49.952,6.44 L50.148,6.034 L50.12,5.6 L50.26,5.544 L50.26,5.502 L50.176,5.25 L50.19,5.194 C50.1246667,5.09133333 50.092,5.012 50.092,4.956 C50.092,4.85333333 50.148,4.72733333 50.26,4.578 L50.26,4.62 L50.316,4.48 L50.33,4.424 L50.33,4.466 C50.4046667,4.27933333 50.5913333,4.18133333 50.89,4.172 L51.338,4.606 L51.38,4.97 L51.52,5.208 L51.436,5.432 L51.45,5.53 L51.45,5.6 C51.4313333,5.628 51.408,5.67 51.38,5.726 L51.422,5.81 L51.422,6.034 L51.366,6.258 L51.422,6.566 L51.422,6.79 L51.464,6.888 L51.436,7.154 L51.534,7.504 Z" id="Path"></path>
            <path d="M62.608,4.48 L62.468,4.662 L62.58,4.998 L62.398,5.208 L62.328,5.502 L62.286,5.572 L62.314,5.642 C62.314,5.77266667 62.2813333,5.87066667 62.216,5.936 L62.188,5.978 L62.188,6.034 C62.216,6.09933333 62.23,6.16 62.23,6.216 C62.23,6.26266667 62.2253333,6.29533333 62.216,6.314 L62.23,6.37 L62.174,6.524 L62.216,6.692 L62.104,6.804 L62.146,7 L62.23,7.098 L62.104,7.21 L62.104,7.434 L62.006,7.658 L62.076,7.882 L61.992,7.994 L62.132,8.092 L61.936,8.414 L61.922,8.456 L62.062,8.484 L61.964,8.806 L61.964,8.862 C61.964,8.92733333 61.9593333,8.97866667 61.95,9.016 L61.964,9.058 L62.188,9.086 L62.37,9.366 L62.272,9.576 L62.426,9.562 C62.482,9.674 62.5146667,9.772 62.524,9.856 L62.314,10.066 C62.2486667,10.1313333 62.1553333,10.1966667 62.034,10.262 L61.796,10.388 L61.726,10.318 L61.586,10.402 L61.152,9.898 L61.152,9.66 C61.096,9.47333333 61.068,9.30066667 61.068,9.142 L61.068,9.058 L60.984,8.232 L61.096,7.644 L61.012,7.308 L60.774,7.7 L60.648,8.064 L60.536,8.12 L60.34,8.428 L59.99,8.75 L59.892,8.918 L59.584,9.184 L59.514,9.366 L59.066,9.646 L58.59,10.178 L58.324,10.234 L58.142,10.374 C57.9086667,10.3646667 57.7313333,10.276 57.61,10.108 C57.19,9.90266667 56.9706667,9.60866667 56.952,9.226 L57.022,9.184 L57.008,9.1 L56.994,8.932 L56.91,8.75 L56.994,8.554 L57.022,8.26 L57.12,7.798 C57.12,7.78866667 57.12,7.77 57.12,7.742 C57.1106667,7.72333333 57.106,7.70466667 57.106,7.686 C57.106,7.64866667 57.1153333,7.602 57.134,7.546 C57.1246667,7.52733333 57.12,7.49 57.12,7.434 C57.12,7.36866667 57.148,7.26133333 57.204,7.112 L57.302,7.07 C57.246,7.02333333 57.218,6.972 57.218,6.916 C57.218,6.87866667 57.2226667,6.85066667 57.232,6.832 C57.2226667,6.804 57.218,6.77133333 57.218,6.734 C57.218,6.622 57.274,6.538 57.386,6.482 C57.414,6.38866667 57.4653333,6.29533333 57.54,6.202 L57.47,6.09 L57.638,5.88 L57.638,5.824 C57.638,5.64666667 57.6986667,5.48333333 57.82,5.334 L57.806,5.082 L57.862,5.026 C57.862,5.01666667 57.862,5.00266667 57.862,4.984 C57.8526667,4.96533333 57.848,4.95133333 57.848,4.942 C57.848,4.886 57.8666667,4.83933333 57.904,4.802 L57.904,4.718 C57.9413333,4.62466667 58.0393333,4.48466667 58.198,4.298 C58.3566667,4.11133333 58.4733333,3.948 58.548,3.808 L58.618,3.878 L58.772,3.808 L58.842,3.78 L59.304,3.57 L60.382,3.626 L60.382,3.724 L60.718,3.794 C60.9326667,3.794 61.0726667,3.864 61.138,4.004 C61.138,3.976 61.1426667,3.94333333 61.152,3.906 C61.152,3.878 61.152,3.85933333 61.152,3.85 L61.446,4.116 L61.712,4.172 L62.216,4.046 L62.398,4.396 L62.608,4.48 Z M61.278,5.208 L61.222,5.11 L61.11,5.082 L60.676,4.732 L60.396,4.69 L60.172,4.69 L60.144,4.662 L60.032,4.704 L59.906,4.634 L59.542,4.634 L59.584,4.69 L59.262,4.802 L59.206,4.872 L59.164,4.886 C58.996,5.026 58.8793333,5.14266667 58.814,5.236 L58.716,5.572 L58.66,5.698 L58.8,5.894 L58.562,6.076 L58.59,6.132 C58.4873333,6.30933333 58.436,6.482 58.436,6.65 L58.324,6.79 L58.324,7.042 L58.212,7.168 L58.184,7.294 L58.142,7.322 L58.142,7.518 L58.1,7.588 C58.1,7.7 58.0906667,7.78866667 58.072,7.854 L58.1,7.924 L57.974,8.19 L58.03,8.274 L57.932,8.414 L58.03,8.68 L57.876,8.876 L57.904,9.142 L57.904,9.184 L57.96,9.212 L58.03,9.198 C58.0766667,9.15133333 58.1233333,9.10933333 58.17,9.072 L58.142,8.96 L58.338,8.932 L58.38,8.834 L59.206,8.162 L59.29,8.134 L59.388,7.896 C59.444,7.87733333 59.5233333,7.84 59.626,7.784 L59.71,7.56 L59.822,7.56 L59.78,7.322 L59.976,7.294 C59.9946667,7.25666667 60.025,7.21 60.067,7.154 C60.109,7.098 60.1533333,7.04666667 60.2,7 L60.914,6.048 L61.026,5.838 L61.012,5.782 L61.11,5.628 L61.138,5.474 L61.264,5.362 L61.278,5.208 Z" id="Shape"></path>
            <path d="M70.784,9.142 L70.616,9.73 L70.504,9.898 C70.3546667,10.122 70.21,10.234 70.07,10.234 C69.958,10.234 69.8086667,10.1546667 69.622,9.996 L69.342,9.59 L69.216,9.338 L69.16,9.086 L69.034,8.666 L69.034,8.05 L68.992,7.518 L69.034,7.224 L69.006,7.14 L68.656,7.63 L68.614,7.63 L68.6,7.672 L68.362,8.05 L67.97,8.47 L67.676,8.876 L67.368,9.17 C67.284,9.31933333 67.186,9.45 67.074,9.562 L66.794,9.758 L66.626,9.982 L66.318,10.08 L66.192,10.234 L65.884,10.29 L65.632,10.444 L65.59,10.43 L65.562,10.5 L65.128,10.444 L64.61,10.08 C64.47,9.92133333 64.3813333,9.74866667 64.344,9.562 C64.3626667,9.55266667 64.3813333,9.53633333 64.4,9.513 C64.4186667,9.48966667 64.4326667,9.47333333 64.442,9.464 C64.4326667,9.45466667 64.3813333,9.43133333 64.288,9.394 L64.162,9.114 L64.232,9.016 L64.162,8.848 L64.232,8.652 L64.204,8.4 L64.302,7.994 L64.302,7.56 L64.4,7.434 L64.4,7.14 L64.498,6.958 L64.526,6.748 L64.554,6.72 L64.554,6.538 L64.694,6.314 L64.722,6.118 L64.806,5.978 L64.848,5.894 L64.904,5.558 L65.002,5.264 L65.072,5.194 L65.1,5.012 L65.282,4.816 C65.3006667,4.76933333 65.3426667,4.67133333 65.408,4.522 L65.758,4.368 L65.982,4.13 L66.626,3.948 C66.7286667,3.948 66.808,3.94333333 66.864,3.934 L66.962,3.99 L66.99,3.878 L67.312,3.85 L67.424,3.892 L67.522,3.878 L67.606,3.948 L67.872,3.962 L67.928,3.92 L67.998,3.976 L68.138,3.99 L68.138,4.088 L68.194,4.13 L68.474,4.186 L68.684,4.424 L68.964,4.634 L69.034,4.774 L69.048,4.788 L69.104,4.592 L69.188,4.41 L69.16,4.088 L69.216,3.5 L69.132,3.276 L69.244,3.108 L69.188,2.954 L69.23,2.562 L69.188,2.226 L69.062,2.128 L69.258,1.904 L69.258,1.75 C69.258,1.59133333 69.1973333,1.41866667 69.076,1.232 L69.16,1.232 L69.314,1.008 C69.454,0.98 69.58,0.966 69.692,0.966 C69.8226667,0.966 69.93,0.994 70.014,1.05 C70.1633333,1.09666667 70.238,1.32066667 70.238,1.722 L70.168,1.722 L70.154,1.778 L70.28,1.89 L70.196,2.114 L70.322,2.38 L70.252,2.464 C70.28,2.52933333 70.294,2.59466667 70.294,2.66 C70.294,2.72533333 70.28,2.79533333 70.252,2.87 L70.322,2.954 C70.3406667,2.99133333 70.35,3.052 70.35,3.136 C70.35,3.23866667 70.3266667,3.332 70.28,3.416 C70.2333333,4.004 70.1913333,4.368 70.154,4.508 C70.1633333,4.536 70.168,4.578 70.168,4.634 C70.168,4.70866667 70.154,4.788 70.126,4.872 L70.126,4.956 C70.126,5.068 70.1073333,5.194 70.07,5.334 L70.028,5.754 L69.958,5.866 L70,5.992 L69.93,6.202 L70,6.384 L69.888,6.818 L69.958,7.14 L69.916,7.322 L69.944,7.602 C69.972,7.66733333 69.986,7.728 69.986,7.784 C69.986,7.83066667 69.9813333,7.868 69.972,7.896 L70.056,7.98 L69.944,8.26 L70.056,8.554 L70.014,8.638 L70.056,8.722 L70.014,8.806 L70.056,8.848 L70.182,8.96 L70.42,8.988 L70.784,9.142 Z M68.698,5.726 L68.642,5.698 C68.5766667,5.66066667 68.5183333,5.6 68.467,5.516 C68.4156667,5.432 68.3666667,5.348 68.32,5.264 C68.2266667,5.236 68.1473333,5.17533333 68.082,5.082 L67.998,5.082 L67.746,4.928 L67.424,4.858 L67.116,4.9 L66.794,4.984 L66.696,4.9 L66.584,4.942 L66.584,4.998 L66.458,5.026 C66.374,5.17533333 66.2433333,5.306 66.066,5.418 L65.954,5.656 L65.842,5.74 L65.744,5.964 L65.702,6.426 L65.576,6.538 L65.576,6.79 L65.436,6.888 L65.464,7.224 L65.226,7.686 L65.184,7.91 L65.156,8.274 L65.24,8.428 L65.142,8.582 L65.226,8.68 L65.086,8.932 L65.156,9.058 L65.212,9.226 L65.296,9.282 L65.394,9.282 L65.52,9.17 L65.632,9.184 L65.87,9.086 L65.898,9.002 L66.164,8.904 L66.192,8.82 L66.36,8.722 L66.36,8.694 L66.71,8.33 L66.878,8.26 L66.962,8.078 L67.144,8.05 L67.368,7.798 L67.326,7.77 L67.424,7.672 L67.564,7.378 L67.69,7.252 L67.76,6.944 L67.984,6.874 L68.138,6.65 L68.194,6.608 L68.194,6.356 L68.404,6.258 L68.698,5.726 Z" id="Shape"></path>
            <path d="M78.722,9.142 L78.554,9.73 L78.442,9.898 C78.2926667,10.122 78.148,10.234 78.008,10.234 C77.896,10.234 77.7466667,10.1546667 77.56,9.996 L77.28,9.59 L77.154,9.338 L77.098,9.086 L76.972,8.666 L76.972,8.05 L76.93,7.518 L76.972,7.224 L76.944,7.14 L76.594,7.63 L76.552,7.63 L76.538,7.672 L76.3,8.05 L75.908,8.47 L75.614,8.876 L75.306,9.17 C75.222,9.31933333 75.124,9.45 75.012,9.562 L74.732,9.758 L74.564,9.982 L74.256,10.08 L74.13,10.234 L73.822,10.29 L73.57,10.444 L73.528,10.43 L73.5,10.5 L73.066,10.444 L72.548,10.08 C72.408,9.92133333 72.3193333,9.74866667 72.282,9.562 C72.3006667,9.55266667 72.3193333,9.53633333 72.338,9.513 C72.3566667,9.48966667 72.3706667,9.47333333 72.38,9.464 C72.3706667,9.45466667 72.3193333,9.43133333 72.226,9.394 L72.1,9.114 L72.17,9.016 L72.1,8.848 L72.17,8.652 L72.142,8.4 L72.24,7.994 L72.24,7.56 L72.338,7.434 L72.338,7.14 L72.436,6.958 L72.464,6.748 L72.492,6.72 L72.492,6.538 L72.632,6.314 L72.66,6.118 L72.744,5.978 L72.786,5.894 L72.842,5.558 L72.94,5.264 L73.01,5.194 L73.038,5.012 L73.22,4.816 C73.2386667,4.76933333 73.2806667,4.67133333 73.346,4.522 L73.696,4.368 L73.92,4.13 L74.564,3.948 C74.6666667,3.948 74.746,3.94333333 74.802,3.934 L74.9,3.99 L74.928,3.878 L75.25,3.85 L75.362,3.892 L75.46,3.878 L75.544,3.948 L75.81,3.962 L75.866,3.92 L75.936,3.976 L76.076,3.99 L76.076,4.088 L76.132,4.13 L76.412,4.186 L76.622,4.424 L76.902,4.634 L76.972,4.774 L76.986,4.788 L77.042,4.592 L77.126,4.41 L77.098,4.088 L77.154,3.5 L77.07,3.276 L77.182,3.108 L77.126,2.954 L77.168,2.562 L77.126,2.226 L77,2.128 L77.196,1.904 L77.196,1.75 C77.196,1.59133333 77.1353333,1.41866667 77.014,1.232 L77.098,1.232 L77.252,1.008 C77.392,0.98 77.518,0.966 77.63,0.966 C77.7606667,0.966 77.868,0.994 77.952,1.05 C78.1013333,1.09666667 78.176,1.32066667 78.176,1.722 L78.106,1.722 L78.092,1.778 L78.218,1.89 L78.134,2.114 L78.26,2.38 L78.19,2.464 C78.218,2.52933333 78.232,2.59466667 78.232,2.66 C78.232,2.72533333 78.218,2.79533333 78.19,2.87 L78.26,2.954 C78.2786667,2.99133333 78.288,3.052 78.288,3.136 C78.288,3.23866667 78.2646667,3.332 78.218,3.416 C78.1713333,4.004 78.1293333,4.368 78.092,4.508 C78.1013333,4.536 78.106,4.578 78.106,4.634 C78.106,4.70866667 78.092,4.788 78.064,4.872 L78.064,4.956 C78.064,5.068 78.0453333,5.194 78.008,5.334 L77.966,5.754 L77.896,5.866 L77.938,5.992 L77.868,6.202 L77.938,6.384 L77.826,6.818 L77.896,7.14 L77.854,7.322 L77.882,7.602 C77.91,7.66733333 77.924,7.728 77.924,7.784 C77.924,7.83066667 77.9193333,7.868 77.91,7.896 L77.994,7.98 L77.882,8.26 L77.994,8.554 L77.952,8.638 L77.994,8.722 L77.952,8.806 L77.994,8.848 L78.12,8.96 L78.358,8.988 L78.722,9.142 Z M76.636,5.726 L76.58,5.698 C76.5146667,5.66066667 76.4563333,5.6 76.405,5.516 C76.3536667,5.432 76.3046667,5.348 76.258,5.264 C76.1646667,5.236 76.0853333,5.17533333 76.02,5.082 L75.936,5.082 L75.684,4.928 L75.362,4.858 L75.054,4.9 L74.732,4.984 L74.634,4.9 L74.522,4.942 L74.522,4.998 L74.396,5.026 C74.312,5.17533333 74.1813333,5.306 74.004,5.418 L73.892,5.656 L73.78,5.74 L73.682,5.964 L73.64,6.426 L73.514,6.538 L73.514,6.79 L73.374,6.888 L73.402,7.224 L73.164,7.686 L73.122,7.91 L73.094,8.274 L73.178,8.428 L73.08,8.582 L73.164,8.68 L73.024,8.932 L73.094,9.058 L73.15,9.226 L73.234,9.282 L73.332,9.282 L73.458,9.17 L73.57,9.184 L73.808,9.086 L73.836,9.002 L74.102,8.904 L74.13,8.82 L74.298,8.722 L74.298,8.694 L74.648,8.33 L74.816,8.26 L74.9,8.078 L75.082,8.05 L75.306,7.798 L75.264,7.77 L75.362,7.672 L75.502,7.378 L75.628,7.252 L75.698,6.944 L75.922,6.874 L76.076,6.65 L76.132,6.608 L76.132,6.356 L76.342,6.258 L76.636,5.726 Z" id="Shape"></path>
            <path d="M82.516,0.686 C82.516,0.798 82.4413333,0.900666667 82.292,0.994 L82.292,1.022 C82.1146667,1.23666667 81.9606667,1.358 81.83,1.386 L81.62,1.638 L81.48,1.82 L81.158,1.904 L81.018,2.1 L80.794,2.212 L80.43,2.534 L80.206,2.324 L80.248,1.974 L80.402,1.722 C80.4113333,1.59133333 80.486,1.47933333 80.626,1.386 L80.626,1.33 L80.71,1.274 L80.724,1.064 L80.948,1.008 L80.948,0.882 L81.116,0.854 C81.1533333,0.667333333 81.2326667,0.532 81.354,0.448 L81.396,0.42 L81.48,0.336 L81.592,0 C82.208,0.149333333 82.516,0.378 82.516,0.686 Z M83.944,8.106 C83.944,8.32066667 83.9066667,8.456 83.832,8.512 L83.762,8.568 L83.692,8.764 L83.468,8.834 C83.4026667,8.98333333 83.3046667,9.1 83.174,9.184 L83.048,9.226 L82.866,9.422 L82.698,9.464 C82.6326667,9.632 82.4973333,9.72066667 82.292,9.73 C82.2733333,9.758 82.2313333,9.814 82.166,9.898 C82.026,9.99133333 81.8813333,10.0473333 81.732,10.066 L81.662,10.08 L81.564,10.206 L81.284,10.206 L81.06,10.374 L80.486,9.954 L80.22,9.408 L80.206,8.722 L80.15,8.554 L80.318,7.322 L80.374,7.266 C80.346,7.126 80.332,6.99066667 80.332,6.86 C80.332,6.776 80.36,6.60333333 80.416,6.342 L80.486,6.02 C80.4673333,5.964 80.43,5.90333333 80.374,5.838 L80.458,5.572 L80.486,5.25 L80.514,5.208 C80.4766667,5.124 80.4533333,5.03066667 80.444,4.928 C80.4533333,4.90933333 80.4626667,4.88366667 80.472,4.851 C80.4813333,4.81833333 80.486,4.79266667 80.486,4.774 C80.458,4.69 80.444,4.61066667 80.444,4.536 C80.444,4.312 80.57,4.20933333 80.822,4.228 L80.99,4.242 C81.102,4.186 81.172,4.158 81.2,4.158 C81.3866667,4.158 81.5126667,4.26066667 81.578,4.466 L81.578,4.522 C81.6153333,4.634 81.634,4.74133333 81.634,4.844 C81.634,4.928 81.6246667,4.98866667 81.606,5.026 L81.508,5.726 L81.606,5.922 C81.606,6.09 81.55,6.23933333 81.438,6.37 L81.494,6.538 L81.312,7.07 C81.2933333,7.30333333 81.27,7.48066667 81.242,7.602 L81.242,7.952 L81.158,8.148 L81.172,8.288 L81.144,8.61 L81.172,8.862 L81.382,9.03 L81.55,9.002 L81.578,8.96 L81.69,8.974 L81.872,8.918 L82.026,8.764 L82.082,8.68 L82.18,8.666 L82.208,8.596 L82.25,8.54 L82.334,8.596 L82.474,8.456 L82.558,8.47 L82.586,8.372 L82.614,8.372 L82.656,8.26 L82.782,8.204 L83.048,8.078 C83.2626667,7.92866667 83.4726667,7.854 83.678,7.854 L83.734,7.854 C83.8366667,7.91933333 83.9066667,8.00333333 83.944,8.106 Z" id="Shape"></path>
            <path d="M93.646,7.882 C93.646,7.95666667 93.5853333,8.05466667 93.464,8.176 L93.31,8.414 L93.254,8.694 L93.128,8.736 L93.1,8.82 C92.9506667,8.86666667 92.8433333,8.98333333 92.778,9.17 C92.6753333,9.30066667 92.5633333,9.394 92.442,9.45 C92.3953333,9.49666667 92.3533333,9.52933333 92.316,9.548 L92.246,9.674 L92.12,9.702 L91.756,9.898 L91.28,9.954 L91.154,9.926 L90.944,9.968 L90.86,9.87 C90.7293333,9.80466667 90.636,9.73933333 90.58,9.674 C90.468,9.646 90.384,9.55733333 90.328,9.408 C90.1693333,9.22133333 90.09,9.072 90.09,8.96 L90.09,8.918 L89.992,8.75 L89.964,8.722 L89.88,8.47 L89.754,8.204 L89.782,7.882 L89.642,7.7 L89.432,6.496 C89.404,6.33733333 89.39,6.202 89.39,6.09 L89.362,6.02 L89.292,5.922 L89.166,6.09 L88.662,6.622 L88.48,6.916 L88.382,7.112 L88.228,7.336 L88.116,7.448 L88.13,7.518 L87.934,7.952 L87.822,8.092 L87.682,8.12 L87.556,8.246 C87.556,8.43266667 87.4673333,8.554 87.29,8.61 L87.262,8.638 C87.178,8.84333333 87.0846667,8.96933333 86.982,9.016 L86.856,9.212 C86.6506667,9.39866667 86.5153333,9.51533333 86.45,9.562 C86.422,9.65533333 86.3706667,9.73466667 86.296,9.8 C86.2773333,9.828 86.2446667,9.86533333 86.198,9.912 C86.17,10.0706667 86.0393333,10.1826667 85.806,10.248 L85.652,10.29 C85.4653333,10.2806667 85.3113333,10.1733333 85.19,9.968 L84.98,9.618 L85.05,9.282 L85.022,9.1 L85.05,9.072 L85.064,8.89 L84.91,8.554 L85.022,8.386 L84.966,8.204 L85.064,8.008 L85.092,7.686 L85.036,7.63 L85.148,7.434 L85.106,7.336 L85.092,7.112 L85.148,6.692 C85.1293333,6.59866667 85.12,6.538 85.12,6.51 C85.12,6.49133333 85.1246667,6.47266667 85.134,6.454 C85.134,6.426 85.134,6.40733333 85.134,6.398 L85.064,6.286 L85.106,5.838 L85.092,5.684 L85.134,5.46 L85.078,5.082 L85.33,4.662 C85.6193333,4.70866667 85.82,4.77166667 85.932,4.851 C86.044,4.93033333 86.1,5.07266667 86.1,5.278 L86.1,5.404 L86.198,5.572 L86.156,5.866 L86.212,6.426 L86.114,6.692 L86.156,6.986 L86.156,7.224 L86.044,7.378 L86.128,7.63 L86.044,7.784 L86.03,7.938 L86.114,8.092 L86.002,8.386 L85.96,8.512 L85.96,8.638 L86.03,8.778 L86.268,8.54 C86.268,8.4 86.3146667,8.30666667 86.408,8.26 C86.4173333,8.16666667 86.4546667,8.09666667 86.52,8.05 L86.478,8.008 L86.66,7.84 L86.702,7.784 L86.702,7.658 L86.926,7.49 L86.982,7.35 L87.108,7.266 L87.654,6.65 C87.6073333,6.706 87.4533333,6.87866667 87.192,7.168 L87.192,7.196 L87.22,7.098 L87.402,6.888 L87.528,6.65 L87.528,6.51 L87.738,6.44 L87.766,6.258 L87.822,6.202 L87.836,6.132 L87.836,6.034 L88.032,5.838 C88.032,5.81933333 88.032,5.796 88.032,5.768 C88.0226667,5.74 88.018,5.72133333 88.018,5.712 C88.018,5.544 88.1113333,5.45066667 88.298,5.432 C88.382,5.264 88.508,5.166 88.676,5.138 L88.76,5.012 L88.788,4.984 C88.872,4.86266667 88.998,4.77866667 89.166,4.732 L89.292,4.578 L89.628,4.578 L89.796,4.774 L89.95,4.858 L89.964,4.9 L90.062,4.928 L90.09,5.222 L90.328,5.362 L90.23,5.67 L90.384,6.006 L90.384,6.398 L90.496,6.93 L90.524,7.434 L90.65,7.728 L90.734,8.092 C90.79,8.148 90.832,8.22733333 90.86,8.33 L91.112,8.4 L91.112,8.68 L91.252,8.834 L91.252,8.876 L91.308,8.89 L91.364,8.974 L91.42,8.904 C91.4013333,8.904 91.4246667,8.90866667 91.49,8.918 C91.5926667,8.918 91.7,8.82466667 91.812,8.638 L91.98,8.596 L92.022,8.526 C92.05,8.45133333 92.106,8.39533333 92.19,8.358 L92.288,8.372 L92.344,8.316 L92.358,8.246 L92.4,8.19 C92.4933333,8.12466667 92.554,8.02666667 92.582,7.896 L92.736,7.728 L92.764,7.602 L92.862,7.378 L93.128,7.28 L93.506,7.406 L93.632,7.812 C93.632,7.82133333 93.6366667,7.83066667 93.646,7.84 C93.646,7.85866667 93.646,7.87266667 93.646,7.882 Z" id="Path"></path>
            <path d="M100.842,8.414 L100.73,8.932 L100.758,9.1 L100.73,9.142 C100.767333,9.226 100.786,9.31 100.786,9.394 C100.786,9.45 100.772,9.506 100.744,9.562 L100.744,9.59 C100.744,9.702 100.702,10.1593333 100.618,10.962 L100.59,11.228 L100.59,11.284 L100.562,11.34 L100.548,11.396 L100.562,11.48 L100.52,11.522 L100.478,11.606 L100.422,11.606 L100.436,11.676 L100.408,11.76 C100.408,11.8253333 100.384667,11.8906667 100.338,11.956 L100.268,12.18 C100.24,12.2826667 100.193333,12.376 100.128,12.46 C100.062667,12.5813333 99.946,12.7446667 99.778,12.95 L99.54,13.132 L99.274,13.356 L99.064,13.454 L98.896,13.58 L98.784,13.608 C98.5973333,13.7106667 98.3873333,13.7713333 98.154,13.79 L98.07,13.776 L97.944,13.832 L97.944,13.86 C97.7853333,13.8973333 97.65,13.916 97.538,13.916 L96.992,13.916 L96.656,13.846 L96.362,13.902 L96.222,13.776 L95.802,13.734 L95.522,13.482 L95.312,13.37 C94.9386667,13.23 94.724,12.9826667 94.668,12.628 L94.696,12.572 L94.654,12.348 C94.766,12.1706667 94.8686667,12.0773333 94.962,12.068 C95.0366667,12.0213333 95.1113333,11.998 95.186,11.998 C95.186,11.998 95.2723333,12.012 95.445,12.04 C95.6176667,12.068 95.7973333,12.0866667 95.984,12.096 L95.956,12.306 L96.124,12.418 L96.124,12.586 L96.012,12.726 L96.656,12.922 L96.978,12.852 L96.978,12.95 L97.076,12.922 L97.104,12.922 C97.1133333,12.922 97.174,12.9313333 97.286,12.95 L97.3,13.006 L97.44,12.936 C97.552,12.88 97.776,12.852 98.112,12.852 C98.168,12.8146667 98.2146667,12.7773333 98.252,12.74 C98.2613333,12.74 98.2846667,12.7446667 98.322,12.754 C98.3593333,12.754 98.3873333,12.754 98.406,12.754 C98.462,12.754 98.518,12.698 98.574,12.586 C98.5833333,12.614 98.602,12.628 98.63,12.628 C98.6486667,12.628 98.672,12.6186667 98.7,12.6 C98.728,12.5813333 98.7466667,12.572 98.756,12.572 L98.784,12.572 L99.232,12.18 L99.442,11.858 L99.456,11.676 L99.61,11.48 L99.624,11.298 L99.708,11.13 L99.778,10.752 L99.89,10.402 C99.8806667,10.346 99.876,10.262 99.876,10.15 C99.876,9.94466667 99.904,9.73933333 99.96,9.534 L99.904,9.31 L99.904,8.624 L99.792,8.386 L99.792,7.994 L99.68,7.7 L99.694,7.252 L99.68,7.182 L99.582,7.21 L99.498,7.42 L99.288,7.602 L99.036,8.008 L98.672,8.26 L98.28,8.666 C98.056,8.89933333 97.7946667,9.10466667 97.496,9.282 L97.356,9.45 L97.146,9.576 L96.95,9.674 L96.768,9.856 L96.544,9.968 C96.4693333,10.0426667 96.362,10.094 96.222,10.122 C96.0166667,10.262 95.7833333,10.332 95.522,10.332 L95.368,10.332 C95.3213333,10.3413333 95.256,10.346 95.172,10.346 C95.0973333,10.346 95.0413333,10.3413333 95.004,10.332 L94.752,10.318 L94.388,9.968 L94.122,9.618 L94.01,9.324 L93.912,8.764 L93.968,8.358 L94.108,7.882 L94.08,7.728 L94.206,7.294 L94.332,7.042 C94.3693333,6.92066667 94.388,6.776 94.388,6.608 L94.696,6.034 C94.724,5.95933333 94.794,5.88 94.906,5.796 L95.046,5.558 L95.214,5.376 C95.2513333,5.25466667 95.326,5.14733333 95.438,5.054 C95.5126667,5.01666667 95.5663333,4.94666667 95.599,4.844 C95.6316667,4.74133333 95.8066667,4.648 96.124,4.564 L96.054,4.578 L96.124,4.55 C96.152,4.50333333 96.2173333,4.41 96.32,4.27 L96.488,4.298 L96.614,4.214 C96.7633333,4.08333333 96.922,4.018 97.09,4.018 L97.188,4.018 L97.552,3.878 L97.762,3.948 L98.014,3.948 L98.168,4.032 C98.2613333,4.04133333 98.336,4.08333333 98.392,4.158 L98.588,4.354 L98.644,4.382 L98.672,4.438 L98.798,4.634 L98.812,4.704 L98.77,4.928 L98.798,5.082 L98.616,5.362 L98.21,5.418 L98,5.082 L97.804,5.012 L97.706,4.914 L97.566,4.914 C97.5193333,4.93266667 97.4213333,4.97933333 97.272,5.054 L97.258,5.166 L96.908,5.166 C96.8146667,5.306 96.712,5.38066667 96.6,5.39 C96.544,5.42733333 96.488,5.46 96.432,5.488 L96.32,5.754 L96.222,5.768 L96.208,5.894 L96.012,5.894 L95.83,6.188 L95.676,6.286 L95.62,6.482 L95.41,6.776 L95.382,7.056 L95.214,7.224 L95.06,7.826 L94.948,7.938 L94.962,8.092 L94.794,8.624 L94.836,8.792 L94.822,8.96 C94.8873333,9.05333333 94.92,9.15133333 94.92,9.254 L95.018,9.282 L95.06,9.366 C95.2186667,9.366 95.3213333,9.38466667 95.368,9.422 C95.452,9.35666667 95.6806667,9.28666667 96.054,9.212 C96.11,9.08133333 96.1893333,8.98566667 96.292,8.925 C96.3946667,8.86433333 96.6046667,8.75 96.922,8.582 L96.964,8.596 C96.964,8.52133333 96.992,8.45133333 97.048,8.386 C97.188,8.33 97.272,8.29266667 97.3,8.274 C97.3746667,8.22733333 97.4166667,8.16666667 97.426,8.092 L97.65,8.036 L97.79,7.91 L98.14,7.434 L98.238,7.49 C98.2473333,7.462 98.35,7.336 98.546,7.112 L98.882,6.72 L98.91,6.538 C99.022,6.43533333 99.1526667,6.13666667 99.302,5.642 L99.232,5.348 L99.12,5.152 L99.204,4.942 L99.092,4.788 L99.064,4.592 L99.022,4.452 L99.162,4.2 C99.3113333,4.12533333 99.4186667,4.088 99.484,4.088 C99.568,4.088 99.68,4.13 99.82,4.214 L99.918,4.396 L100.1,4.536 L100.128,4.844 C100.156,4.928 100.188667,5.054 100.226,5.222 C100.272667,5.306 100.296,5.404 100.296,5.516 L100.296,5.614 L100.324,5.698 L100.478,5.922 L100.436,6.174 L100.52,6.286 C100.548,6.35133333 100.562,6.42133333 100.562,6.496 C100.562,6.56133333 100.557333,6.61266667 100.548,6.65 L100.674,6.692 L100.576,7.042 L100.632,7.308 C100.678667,7.40133333 100.702,7.48533333 100.702,7.56 C100.702,7.63466667 100.678667,7.728 100.632,7.84 L100.716,7.91 L100.842,8.414 Z" id="Path"></path>
            <path d="M113.386,7.504 C113.358,7.60666667 113.316,7.72333333 113.26,7.854 L113.274,7.938 L113.372,8.442 L113.274,8.974 L113.316,9.226 L113.232,9.408 L113.288,10.024 L113.232,10.122 L113.232,10.528 L113.218,10.85 L113.26,10.99 L113.232,11.872 L113.344,12.124 L113.26,12.236 L113.302,12.474 L113.232,12.544 L113.302,12.782 L113.176,12.922 L113.176,13.02 L113.12,13.146 C113.092,13.3046667 112.989333,13.5333333 112.812,13.832 L112.714,14.182 C112.639333,14.2193333 112.592667,14.2473333 112.574,14.266 L112.532,14.308 L112.406,14.476 L112.266,14.686 L112.028,14.812 C111.916,15.0173333 111.785333,15.134 111.636,15.162 C111.589333,15.2086667 111.556667,15.2366667 111.538,15.246 L111.496,15.288 L111.3,15.372 L111.188,15.484 L111.048,15.484 L110.978,15.596 L110.726,15.54 L110.46,15.708 L110.208,15.652 L109.746,15.722 L109.648,15.708 L109.578,15.736 L109.116,15.652 L108.906,15.652 L108.822,15.568 L108.262,15.386 L107.786,15.316 L107.716,15.19 L107.464,15.162 L107.38,14.924 L107.212,14.882 L107.1,14.672 L106.834,14.574 L106.61,14.252 L106.204,14 L106.232,13.734 C106.213333,13.7246667 106.171333,13.5426667 106.106,13.188 C106.106,13.0386667 106.138667,12.8566667 106.204,12.642 L106.204,12.516 L106.344,12.446 L106.428,12.208 L106.484,12.236 L106.624,12.012 L106.876,11.816 L107.072,11.76 L107.45,11.452 L107.814,11.48 C107.907333,11.3866667 108.028667,11.34 108.178,11.34 C108.392667,11.4426667 108.5,11.5686667 108.5,11.718 C108.5,11.8113333 108.458,11.9046667 108.374,11.998 L108.178,12.096 L107.968,12.25 L107.758,12.306 L107.632,12.544 L107.422,12.544 L107.338,12.684 L107.156,12.838 L107.17,13.048 L107.058,13.244 L107.114,13.384 L107.212,13.608 L107.52,13.804 L107.59,14.014 L107.968,14.308 L108.178,14.322 L108.43,14.518 L108.682,14.518 L108.836,14.672 L109.032,14.658 L109.144,14.742 L109.816,14.714 L110.25,14.574 L110.516,14.588 L110.81,14.42 C110.884667,14.392 110.95,14.378 111.006,14.378 C111.024667,14.3686667 111.057333,14.35 111.104,14.322 L111.174,14.21 L111.314,14.252 L111.37,14.196 L111.37,14.084 C111.379333,14.028 111.44,13.9813333 111.552,13.944 C111.589333,13.8506667 111.664,13.7713333 111.776,13.706 C111.804,13.6593333 111.827333,13.5566667 111.846,13.398 L112.042,13.286 L112.084,13.188 C112.121333,13.1133333 112.158667,13.034 112.196,12.95 L112.21,12.908 L112.252,12.362 L112.308,12.32 L112.308,12.096 L112.252,11.886 L112.336,11.718 C112.317333,11.5313333 112.308,11.4053333 112.308,11.34 C112.308,11.256 112.312667,11.1603333 112.322,11.053 C112.331333,10.9456667 112.336,10.8826667 112.336,10.864 L112.336,10.15 L112.238,9.968 L112.336,9.674 L112.308,9.394 L112.308,8.68 L112.266,8.498 L112.322,8.4 L112.322,8.218 C112.322,8.15266667 112.326667,8.11066667 112.336,8.092 L112.224,7.77 L112.224,7.28 L112.07,7.532 L111.902,7.658 L111.734,7.826 L111.622,7.868 L111.58,8.036 L111.454,8.106 L111.44,8.148 L111.244,8.316 L110.978,8.638 L110.6,9.03 L110.46,9.072 L110.418,9.142 L109.998,9.45 L109.872,9.45 L109.732,9.59 L109.676,9.73 L109.368,9.828 L109.312,9.926 L109.102,9.954 L108.808,10.15 L108.57,10.206 L108.458,10.29 L108.304,10.318 L108.262,10.346 C108.140667,10.4766667 107.949333,10.542 107.688,10.542 C107.408,10.542 107.188667,10.4533333 107.03,10.276 L106.722,9.814 L106.708,9.548 L106.54,9.044 L106.54,8.624 L106.484,8.456 L106.568,8.316 L106.498,8.008 L106.596,7.924 L106.61,7.784 L106.694,7.616 L106.666,7.322 L106.722,7.21 L106.722,7.112 C106.722,6.916 106.754667,6.68733333 106.82,6.426 L106.778,6.048 L106.82,5.698 L106.694,5.194 L106.722,5.096 L106.666,5.012 L106.834,4.564 C106.871333,4.41466667 106.89,4.26533333 106.89,4.116 C107.002,4.06 107.114,4.032 107.226,4.032 C107.31,4.032 107.394,4.046 107.478,4.074 L107.604,4.354 L107.842,4.522 C107.814,4.662 107.790667,4.774 107.772,4.858 L107.898,5.068 L107.842,5.208 L108.024,5.362 L107.856,5.67 L107.94,6.034 L107.842,6.188 L107.856,6.216 L107.772,6.818 L107.772,7.364 L107.688,7.448 L107.632,7.938 L107.506,8.092 C107.506,8.13866667 107.510667,8.19933333 107.52,8.274 C107.52,8.33933333 107.52,8.386 107.52,8.414 L107.618,8.666 L107.52,8.848 L107.548,9.072 L107.52,9.128 C107.538667,9.24 107.548,9.296 107.548,9.296 L107.674,9.408 L107.772,9.38 L107.786,9.464 L107.884,9.324 L108.29,9.324 C108.346,9.268 108.416,9.22133333 108.5,9.184 C108.714667,9.03466667 108.906,8.95066667 109.074,8.932 L109.088,8.75 C109.349333,8.61 109.680667,8.428 110.082,8.204 L110.138,8.092 C110.11,8.11066667 110.086667,8.12466667 110.068,8.134 C110.096,8.11533333 110.161333,8.07333333 110.264,8.008 L110.32,7.826 L110.418,7.672 L110.614,7.602 L110.726,7.434 L110.796,7.448 L110.88,7.392 L111.048,7.21 L111.118,7.196 L111.132,7.154 L111.384,6.888 L111.538,6.636 C111.640667,6.608 111.729333,6.54266667 111.804,6.44 L112,6.034 L111.972,5.6 L112.112,5.544 L112.112,5.502 L112.028,5.25 L112.042,5.194 C111.976667,5.09133333 111.944,5.012 111.944,4.956 C111.944,4.85333333 112,4.72733333 112.112,4.578 L112.112,4.62 L112.168,4.48 L112.182,4.424 L112.182,4.466 C112.256667,4.27933333 112.443333,4.18133333 112.742,4.172 L113.19,4.606 L113.232,4.97 L113.372,5.208 L113.288,5.432 L113.302,5.53 L113.302,5.6 C113.283333,5.628 113.26,5.67 113.232,5.726 L113.274,5.81 L113.274,6.034 L113.218,6.258 L113.274,6.566 L113.274,6.79 L113.316,6.888 L113.288,7.154 L113.386,7.504 Z" id="Path"></path>
            <path d="M120.246,6.874 L120.162,7.126 C120.162,7.36866667 120.148,7.56 120.12,7.7 L120.036,7.84 L120.036,7.994 L119.966,8.092 L119.924,8.288 L119.77,8.442 L119.672,8.792 L119.56,8.834 L119.504,8.988 L119.336,9.086 L119.224,9.324 L119.056,9.408 L119.042,9.576 L118.776,9.674 C118.654667,9.842 118.505333,9.94933333 118.328,9.996 L118.272,10.01 C118.141333,10.206 117.968667,10.304 117.754,10.304 C117.660667,10.36 117.553333,10.388 117.432,10.388 L117.292,10.486 L117.152,10.528 L116.97,10.668 L116.788,10.654 L116.592,10.71 L116.354,10.612 L115.752,10.57 L115.542,10.248 L115.234,9.926 L115.304,9.702 L115.094,9.226 L115.192,9.044 L115.122,8.708 L115.192,8.498 C115.173333,8.36733333 115.164,8.274 115.164,8.218 C115.164,8.04066667 115.210667,7.91 115.304,7.826 C115.313333,7.73266667 115.374,7.57866667 115.486,7.364 L115.556,7.364 L115.528,7.266 L115.57,7.07 L115.57,6.86 C115.644667,6.776 115.686667,6.72 115.696,6.692 L115.654,6.496 L115.654,6.44 C115.719333,6.30933333 115.752,6.174 115.752,6.034 L116.046,5.628 C116.046,5.628 116.057667,5.61866667 116.081,5.6 C116.104333,5.58133333 116.125333,5.56266667 116.144,5.544 L116.13,5.488 L116.186,5.488 L116.396,5.25 L116.41,4.928 L116.76,4.802 C116.890667,4.718 116.974667,4.578 117.012,4.382 L117.194,4.382 C117.296667,4.326 117.39,4.298 117.474,4.298 C117.558,4.298 117.637333,4.31666667 117.712,4.354 L117.866,4.368 L118.23,4.228 L118.426,4.41 L118.58,4.508 L118.692,4.508 L118.902,4.62 L119.014,4.62 C119.135333,4.732 119.275333,4.886 119.434,5.082 L119.462,5.152 L119.56,5.208 L119.854,5.586 L120.12,6.244 L120.12,6.384 L120.246,6.874 Z M119.322,7.21 L119.308,7.14 C119.242667,7.07466667 119.205333,7.00466667 119.196,6.93 L119.238,6.86 L119.112,6.594 L119.14,6.328 L119.084,6.258 C118.962667,6.16466667 118.897333,6.09 118.888,6.034 C118.804,5.99666667 118.762,5.90333333 118.762,5.754 L118.678,5.74 L118.51,5.46 L118.384,5.362 L118.09,5.25 L117.978,5.222 C117.922,5.222 117.884667,5.20333333 117.866,5.166 L117.586,5.474 L117.404,5.866 L117.11,6.02 L117.068,6.174 L116.928,6.244 L116.872,6.608 L116.704,6.692 C116.666667,6.82266667 116.648,6.944 116.648,7.056 L116.424,7.266 L116.494,7.308 C116.494,7.42 116.452,7.518 116.368,7.602 C116.34,7.686 116.302667,7.77933333 116.256,7.882 L116.256,7.994 L116.214,8.05 L116.228,8.218 L116.074,8.596 L116.102,8.666 L116.102,9.058 L116.046,9.254 L116.06,9.45 L116.186,9.632 L116.382,9.702 L116.452,9.73 L116.564,9.674 L116.928,9.702 L116.984,9.562 L117.04,9.562 C117.096,9.562 117.128667,9.576 117.138,9.604 L117.264,9.562 L117.376,9.604 L117.558,9.478 L117.586,9.436 L117.712,9.408 C117.777333,9.30533333 117.931333,9.20266667 118.174,9.1 L118.202,9.03 L118.482,8.834 L118.636,8.61 L118.86,8.498 L118.874,8.428 L118.944,8.274 L118.944,8.092 L119.112,7.952 L119.168,7.854 L119.238,7.77 C119.200667,7.658 119.182,7.57866667 119.182,7.532 C119.182,7.448 119.21,7.35933333 119.266,7.266 L119.322,7.21 Z" id="Shape"></path>
            <path d="M129.108,9.338 C129.108,9.45 129.024,9.58533333 128.856,9.744 L128.744,9.786 L128.646,9.912 L128.394,9.982 C128.347333,10.0473333 128.300667,10.08 128.254,10.08 C128.244667,10.08 128.235333,10.0753333 128.226,10.066 C128.207333,10.066 128.193333,10.066 128.184,10.066 C127.978667,10.1686667 127.731333,10.22 127.442,10.22 L127.33,10.22 L126.98,10.15 L126.742,10.038 L126.21,9.59 L126.098,9.212 L125.874,9.03 C125.902,8.99266667 125.916,8.932 125.916,8.848 C125.916,8.792 125.878667,8.69866667 125.804,8.568 L125.846,8.232 L125.846,8.176 C125.846,8.064 125.813333,7.91933333 125.748,7.742 L125.832,7.322 L125.65,7.686 L125.44,7.714 L125.412,8.008 C125.337333,8.04533333 125.248667,8.064 125.146,8.064 L124.992,8.4 L124.81,8.61 C124.735333,8.694 124.67,8.74066667 124.614,8.75 L124.572,8.778 L124.068,9.296 L124.012,9.296 L123.746,9.604 L123.494,9.73 L123.354,9.912 L123.032,10.01 L122.57,10.192 L122.29,10.052 C122.103333,10.052 121.972667,9.968 121.898,9.8 L121.772,9.73 C121.772,9.702 121.776667,9.66466667 121.786,9.618 C121.786,9.57133333 121.786,9.53866667 121.786,9.52 L121.562,9.324 L121.618,9.24 L121.45,8.848 L121.506,8.792 L121.478,8.764 C121.478,8.74533333 121.478,8.71733333 121.478,8.68 C121.468667,8.652 121.464,8.62866667 121.464,8.61 C121.464,8.50733333 121.478,8.40933333 121.506,8.316 L121.52,7.952 L121.464,7.658 C121.510667,7.58333333 121.534,7.518 121.534,7.462 C121.534,7.39666667 121.506,7.336 121.45,7.28 L121.604,7.168 L121.604,7 L121.548,6.538 L121.702,5.642 C121.702,5.49266667 121.66,5.27333333 121.576,4.984 C121.604,4.68533333 121.8,4.522 122.164,4.494 L122.276,4.536 L122.472,4.564 L122.724,4.844 L122.64,5.208 L122.612,5.81 L122.654,6.272 L122.57,6.44 L122.612,6.552 L122.542,6.776 L122.542,6.916 L122.514,6.958 C122.523333,6.986 122.528,7.028 122.528,7.084 C122.528,7.20533333 122.509333,7.33133333 122.472,7.462 L122.542,7.56 L122.486,7.77 L122.514,7.938 L122.514,8.134 C122.560667,8.19 122.584,8.26 122.584,8.344 C122.584,8.41866667 122.565333,8.49333333 122.528,8.568 L122.528,8.624 C122.574667,8.78266667 122.598,8.88533333 122.598,8.932 L122.724,9.058 C122.78,9.02066667 122.845333,8.974 122.92,8.918 C122.948,8.82466667 123.013333,8.764 123.116,8.736 L123.116,8.596 C123.172,8.596 123.260667,8.582 123.382,8.554 L123.41,8.428 L123.648,8.33 L123.69,8.288 C123.755333,8.22266667 123.862667,8.162 124.012,8.106 L124.012,8.05 L124.278,7.854 C124.343333,7.67666667 124.46,7.56 124.628,7.504 C124.730667,7.40133333 124.800667,7.34066667 124.838,7.322 L125.02,7.084 L125.02,7.042 L125.076,7.014 L125.202,6.958 L125.272,6.762 L125.566,6.636 L125.622,6.622 C125.622,6.622 125.654667,6.58933333 125.72,6.524 L125.72,6.398 L125.804,6.37 C125.832,6.22066667 125.906667,6.10866667 126.028,6.034 L126.238,5.558 L126.308,5.306 L126.336,5.25 L126.392,5.25 L126.49,5.18 L126.406,5.152 C126.508667,4.984 126.588,4.80666667 126.644,4.62 L127.05,4.606 L127.372,4.872 L127.512,5.096 L127.358,5.698 L127.148,5.978 L126.98,6.524 L126.84,6.608 L126.84,6.818 L126.756,6.972 L126.798,7.224 L126.686,7.322 L126.742,7.77 L126.77,8.4 L126.84,8.4 L126.84,8.764 L127.036,9.002 L127.218,9.1 L127.232,9.17 C127.297333,9.17933333 127.376667,9.20266667 127.47,9.24 L127.82,9.268 L128.03,9.212 L128.408,9.03 C128.482667,8.99266667 128.576,8.974 128.688,8.974 C128.968,8.974 129.108,9.09533333 129.108,9.338 Z" id="Path"></path>
            <path d="M135.268,4.942 L135.156,5.404 L134.638,5.474 L134.358,5.656 L134.176,5.572 L133.98,5.684 L133.77,5.768 L133.63,5.866 L133.63,5.922 L133.336,6.062 L133.14,6.314 L133.042,6.314 C132.892667,6.47266667 132.785333,6.57066667 132.72,6.608 L132.524,6.93 L132.454,6.958 C132.426,7.03266667 132.393333,7.14466667 132.356,7.294 L132.16,7.364 L132.076,7.532 L131.964,7.672 L131.936,7.882 L131.824,7.924 L131.824,8.134 L131.782,8.176 C131.81,8.22266667 131.842667,8.274 131.88,8.33 L131.67,8.414 L131.642,8.596 L131.502,8.834 L131.586,9.016 L131.404,9.268 C131.422667,9.36133333 131.432,9.42666667 131.432,9.464 C131.432,9.47333333 131.432,9.492 131.432,9.52 C131.422667,9.548 131.418,9.57133333 131.418,9.59 L131.446,9.716 L131.684,9.968 L131.502,10.29 L131.334,10.416 L130.942,10.612 L130.424,10.402 L130.424,10.08 L130.368,9.954 L130.41,9.744 C130.391333,9.59466667 130.382,9.48266667 130.382,9.408 C130.382,9.38 130.386667,9.34266667 130.396,9.296 C130.396,9.24933333 130.396,9.21666667 130.396,9.198 L130.382,9.058 C130.316667,8.99266667 130.284,8.918 130.284,8.834 C130.284,8.75933333 130.316667,8.67533333 130.382,8.582 C130.382,8.53533333 130.372667,8.39533333 130.354,8.162 L130.396,8.12 L130.354,7.938 L130.382,7.77 L130.354,7.672 L130.396,7.35 L130.312,7.21 L130.368,7.056 L130.312,6.874 C130.321333,6.818 130.326,6.74333333 130.326,6.65 C130.326,6.51 130.307333,6.41666667 130.27,6.37 L130.326,6.286 L130.27,6.034 L130.144,5.852 L130.214,5.628 L130.158,5.544 L130.102,5.208 L130.102,5.096 C130.055333,5.04 130.032,4.97 130.032,4.886 C130.032,4.69933333 130.237333,4.54066667 130.648,4.41 L130.998,4.48 L131.068,4.746 L131.208,4.928 L131.166,5.306 C131.194,5.49266667 131.226667,5.698 131.264,5.922 L131.306,6.146 C131.315333,6.16466667 131.324667,6.216 131.334,6.3 C131.334,6.356 131.310667,6.41666667 131.264,6.482 L131.306,6.762 L131.278,7.07 L131.222,7.21 L131.264,7.266 L131.292,7.406 C131.348,7.34066667 131.380667,7.27066667 131.39,7.196 L131.446,6.986 C131.474,6.93 131.516,6.888 131.572,6.86 L131.628,6.65 L131.824,6.538 L131.852,6.37 L132.006,6.202 L132.118,5.992 C132.239333,5.86133333 132.356,5.77733333 132.468,5.74 L132.496,5.698 L132.622,5.502 L132.762,5.474 L132.804,5.432 L132.86,5.348 L133.014,5.264 L133.098,5.166 L133.182,5.18 L133.294,5.124 L133.35,5.04 L133.518,4.956 L133.756,4.802 L134.092,4.69 C134.222667,4.67133333 134.292667,4.662 134.302,4.662 C134.302,4.67133333 134.302,4.676 134.302,4.676 C134.292667,4.676 134.288,4.68066667 134.288,4.69 L134.302,4.69 C134.339333,4.69 134.395333,4.67133333 134.47,4.634 C134.516667,4.59666667 134.582,4.578 134.666,4.578 C134.703333,4.578 134.768667,4.58733333 134.862,4.606 C135.104667,4.61533333 135.24,4.72733333 135.268,4.942 Z" id="Path"></path>
            <path d="M7.21,19.792 C7.21,19.9786667 7.098,20.1653333 6.874,20.352 L6.762,20.282 L6.538,20.408 L6.258,19.862 C6.23933333,19.722 6.202,19.6053333 6.146,19.512 L6.062,19.554 L5.824,19.428 L5.74,19.414 L5.558,19.526 L5.264,19.442 L5.166,19.484 C5.082,19.5773333 4.998,19.624 4.914,19.624 C4.87666667,19.624 4.844,19.6193333 4.816,19.61 L4.816,19.75 C4.72266667,19.8993333 4.606,20.0813333 4.466,20.296 C4.45666667,20.3893333 4.424,20.562 4.368,20.814 L4.242,20.898 L4.186,21.052 L4.116,21.178 L4.186,21.458 L4.018,21.71 L3.962,21.92 L3.906,22.032 L3.92,22.228 L3.724,22.732 L3.752,22.97 C3.74266667,23.0073333 3.68666667,23.138 3.584,23.362 L3.57,23.418 C3.66333333,23.3806667 3.74266667,23.3573333 3.808,23.348 L3.892,23.362 C3.91066667,23.3526667 3.95266667,23.3386667 4.018,23.32 L4.06,23.32 C4.06,23.32 4.21866667,23.3293333 4.536,23.348 L4.578,23.32 C4.69,23.3013333 4.75533333,23.292 4.774,23.292 C4.86733333,23.292 4.97,23.3153333 5.082,23.362 C5.194,23.334 5.292,23.32 5.376,23.32 C5.45066667,23.32 5.516,23.334 5.572,23.362 L5.698,23.362 L5.88,23.404 C6.216,23.4133333 6.384,23.5486667 6.384,23.81 C6.384,23.8846667 6.37,23.9733333 6.342,24.076 L5.712,24.258 L5.348,24.202 C5.24533333,24.23 5.07266667,24.2626667 4.83,24.3 L4.76,24.23 C4.69466667,24.2953333 4.606,24.328 4.494,24.328 L4.34,24.328 L3.948,24.51 L3.752,24.412 L3.682,24.412 C3.60733333,24.5053333 3.514,24.566 3.402,24.594 L3.416,24.678 L3.36,24.874 L3.444,25.112 L3.262,25.476 L3.304,26.036 L3.234,26.232 L3.276,26.428 L3.136,26.736 L3.178,26.904 C3.18733333,26.9133333 3.192,26.9366667 3.192,26.974 C3.192,26.9833333 3.17333333,27.0836667 3.136,27.275 C3.09866667,27.4663333 3.08,27.6553333 3.08,27.842 L3.08,27.968 C3.08933333,27.9773333 3.14066667,28.038 3.234,28.15 L3.136,28.388 L3.234,28.668 L3.164,28.892 L3.318,29.578 L3.36,30.334 L3.584,30.614 L3.458,30.922 C3.57,31.118 3.626,31.2766667 3.626,31.398 L3.626,31.44 C3.626,31.4586667 3.63066667,31.482 3.64,31.51 C3.64,31.5473333 3.64,31.5706667 3.64,31.58 C3.64,31.9346667 3.43466667,32.1213333 3.024,32.14 L2.912,31.916 L2.744,31.818 L2.716,31.566 L2.436,30.782 L2.436,30.628 C2.39866667,30.46 2.38,30.362 2.38,30.334 C2.38,30.2873333 2.38466667,30.2546667 2.394,30.236 L2.352,29.998 L2.394,29.76 L2.352,29.606 L2.352,29.298 L2.212,28.416 L2.24,28.388 L2.212,28.234 L2.24,28.038 L2.142,27.856 L2.226,27.702 L2.226,26.974 L2.296,26.89 L2.296,26.386 L2.338,26.274 L2.296,25.84 L2.352,25.672 C2.37066667,25.5133333 2.42666667,25.1586667 2.52,24.608 L2.464,24.608 L2.282,24.552 L2.072,24.552 L1.68,24.608 L1.442,24.552 L1.036,24.636 L0.896,24.608 C0.849333333,24.6173333 0.793333333,24.622 0.728,24.622 C0.317333333,24.4353333 0.098,24.2906667 0.07,24.188 L0,23.95 C0.121333333,23.586 0.289333333,23.404 0.504,23.404 C0.513333333,23.404 0.672,23.4366667 0.98,23.502 L1.792,23.53 L2.184,23.446 L2.52,23.46 L2.646,23.474 L2.688,23.292 L2.716,22.886 L2.786,22.718 L2.744,22.438 C2.744,22.3353333 2.78133333,22.2466667 2.856,22.172 L2.842,22.018 L2.996,21.85 L3.066,21.43 L3.122,21.36 L3.08,21.178 C3.192,21.0473333 3.248,20.94 3.248,20.856 C3.23866667,20.8 3.234,20.772 3.234,20.772 C3.234,20.8466667 3.304,20.632 3.444,20.128 L3.542,20.058 L3.556,19.75 L3.584,19.82 L3.584,19.778 C3.584,19.6193333 3.64933333,19.5026667 3.78,19.428 L3.864,19.302 L4.032,18.896 L4.06,18.896 C4.16266667,18.896 4.214,18.8353333 4.214,18.714 L4.214,18.658 L4.606,18.518 L4.718,18.518 C4.83933333,18.4806667 4.96533333,18.462 5.096,18.462 L5.194,18.462 L5.264,18.434 L5.572,18.364 L5.936,18.448 C5.95466667,18.4573333 5.992,18.4713333 6.048,18.49 C6.14133333,18.4526667 6.20666667,18.434 6.244,18.434 C6.37466667,18.434 6.496,18.532 6.608,18.728 L6.804,18.868 L6.944,19.148 L7.154,19.358 L7.21,19.75 L7.21,19.792 Z" id="Path"></path>
            <path d="M9.072,18.686 C9.072,18.798 8.99733333,18.9006667 8.848,18.994 L8.848,19.022 C8.67066667,19.2366667 8.51666667,19.358 8.386,19.386 L8.176,19.638 L8.036,19.82 L7.714,19.904 L7.574,20.1 L7.35,20.212 L6.986,20.534 L6.762,20.324 L6.804,19.974 L6.958,19.722 C6.96733333,19.5913333 7.042,19.4793333 7.182,19.386 L7.182,19.33 L7.266,19.274 L7.28,19.064 L7.504,19.008 L7.504,18.882 L7.672,18.854 C7.70933333,18.6673333 7.78866667,18.532 7.91,18.448 L7.952,18.42 L8.036,18.336 L8.148,18 C8.764,18.1493333 9.072,18.378 9.072,18.686 Z M10.5,26.106 C10.5,26.3206667 10.4626667,26.456 10.388,26.512 L10.318,26.568 L10.248,26.764 L10.024,26.834 C9.95866667,26.9833333 9.86066667,27.1 9.73,27.184 L9.604,27.226 L9.422,27.422 L9.254,27.464 C9.18866667,27.632 9.05333333,27.7206667 8.848,27.73 C8.82933333,27.758 8.78733333,27.814 8.722,27.898 C8.582,27.9913333 8.43733333,28.0473333 8.288,28.066 L8.218,28.08 L8.12,28.206 L7.84,28.206 L7.616,28.374 L7.042,27.954 L6.776,27.408 L6.762,26.722 L6.706,26.554 L6.874,25.322 L6.93,25.266 C6.902,25.126 6.888,24.9906667 6.888,24.86 C6.888,24.776 6.916,24.6033333 6.972,24.342 L7.042,24.02 C7.02333333,23.964 6.986,23.9033333 6.93,23.838 L7.014,23.572 L7.042,23.25 L7.07,23.208 C7.03266667,23.124 7.00933333,23.0306667 7,22.928 C7.00933333,22.9093333 7.01866667,22.8836667 7.028,22.851 C7.03733333,22.8183333 7.042,22.7926667 7.042,22.774 C7.014,22.69 7,22.6106667 7,22.536 C7,22.312 7.126,22.2093333 7.378,22.228 L7.546,22.242 C7.658,22.186 7.728,22.158 7.756,22.158 C7.94266667,22.158 8.06866667,22.2606667 8.134,22.466 L8.134,22.522 C8.17133333,22.634 8.19,22.7413333 8.19,22.844 C8.19,22.928 8.18066667,22.9886667 8.162,23.026 L8.064,23.726 L8.162,23.922 C8.162,24.09 8.106,24.2393333 7.994,24.37 L8.05,24.538 L7.868,25.07 C7.84933333,25.3033333 7.826,25.4806667 7.798,25.602 L7.798,25.952 L7.714,26.148 L7.728,26.288 L7.7,26.61 L7.728,26.862 L7.938,27.03 L8.106,27.002 L8.134,26.96 L8.246,26.974 L8.428,26.918 L8.582,26.764 L8.638,26.68 L8.736,26.666 L8.764,26.596 L8.806,26.54 L8.89,26.596 L9.03,26.456 L9.114,26.47 L9.142,26.372 L9.17,26.372 L9.212,26.26 L9.338,26.204 L9.604,26.078 C9.81866667,25.9286667 10.0286667,25.854 10.234,25.854 L10.29,25.854 C10.3926667,25.9193333 10.4626667,26.0033333 10.5,26.106 Z" id="Shape"></path>
            <path d="M16.59,22.942 L16.478,23.404 L15.96,23.474 L15.68,23.656 L15.498,23.572 L15.302,23.684 L15.092,23.768 L14.952,23.866 L14.952,23.922 L14.658,24.062 L14.462,24.314 L14.364,24.314 C14.2146667,24.4726667 14.1073333,24.5706667 14.042,24.608 L13.846,24.93 L13.776,24.958 C13.748,25.0326667 13.7153333,25.1446667 13.678,25.294 L13.482,25.364 L13.398,25.532 L13.286,25.672 L13.258,25.882 L13.146,25.924 L13.146,26.134 L13.104,26.176 C13.132,26.2226667 13.1646667,26.274 13.202,26.33 L12.992,26.414 L12.964,26.596 L12.824,26.834 L12.908,27.016 L12.726,27.268 C12.7446667,27.3613333 12.754,27.4266667 12.754,27.464 C12.754,27.4733333 12.754,27.492 12.754,27.52 C12.7446667,27.548 12.74,27.5713333 12.74,27.59 L12.768,27.716 L13.006,27.968 L12.824,28.29 L12.656,28.416 L12.264,28.612 L11.746,28.402 L11.746,28.08 L11.69,27.954 L11.732,27.744 C11.7133333,27.5946667 11.704,27.4826667 11.704,27.408 C11.704,27.38 11.7086667,27.3426667 11.718,27.296 C11.718,27.2493333 11.718,27.2166667 11.718,27.198 L11.704,27.058 C11.6386667,26.9926667 11.606,26.918 11.606,26.834 C11.606,26.7593333 11.6386667,26.6753333 11.704,26.582 C11.704,26.5353333 11.6946667,26.3953333 11.676,26.162 L11.718,26.12 L11.676,25.938 L11.704,25.77 L11.676,25.672 L11.718,25.35 L11.634,25.21 L11.69,25.056 L11.634,24.874 C11.6433333,24.818 11.648,24.7433333 11.648,24.65 C11.648,24.51 11.6293333,24.4166667 11.592,24.37 L11.648,24.286 L11.592,24.034 L11.466,23.852 L11.536,23.628 L11.48,23.544 L11.424,23.208 L11.424,23.096 C11.3773333,23.04 11.354,22.97 11.354,22.886 C11.354,22.6993333 11.5593333,22.5406667 11.97,22.41 L12.32,22.48 L12.39,22.746 L12.53,22.928 L12.488,23.306 C12.516,23.4926667 12.5486667,23.698 12.586,23.922 L12.628,24.146 C12.6373333,24.1646667 12.6466667,24.216 12.656,24.3 C12.656,24.356 12.6326667,24.4166667 12.586,24.482 L12.628,24.762 L12.6,25.07 L12.544,25.21 L12.586,25.266 L12.614,25.406 C12.67,25.3406667 12.7026667,25.2706667 12.712,25.196 L12.768,24.986 C12.796,24.93 12.838,24.888 12.894,24.86 L12.95,24.65 L13.146,24.538 L13.174,24.37 L13.328,24.202 L13.44,23.992 C13.5613333,23.8613333 13.678,23.7773333 13.79,23.74 L13.818,23.698 L13.944,23.502 L14.084,23.474 L14.126,23.432 L14.182,23.348 L14.336,23.264 L14.42,23.166 L14.504,23.18 L14.616,23.124 L14.672,23.04 L14.84,22.956 L15.078,22.802 L15.414,22.69 C15.5446667,22.6713333 15.6146667,22.662 15.624,22.662 C15.624,22.6713333 15.624,22.676 15.624,22.676 C15.6146667,22.676 15.61,22.6806667 15.61,22.69 L15.624,22.69 C15.6613333,22.69 15.7173333,22.6713333 15.792,22.634 C15.8386667,22.5966667 15.904,22.578 15.988,22.578 C16.0253333,22.578 16.0906667,22.5873333 16.184,22.606 C16.4266667,22.6153333 16.562,22.7273333 16.59,22.942 Z" id="Path"></path>
            <path d="M21.98,27.002 L21.812,27.198 L21.658,27.562 L21.546,27.646 L21.448,27.842 L21.168,27.87 L20.986,28.052 L20.706,28.052 L20.538,28.192 L20.384,28.15 L20.202,28.192 L20.202,28.304 L19.684,28.262 L19.46,28.276 L19.292,28.36 L19.152,28.276 C19.2453333,28.2666667 19.32,28.262 19.376,28.262 C19.3013333,28.2713333 19.0773333,28.29 18.704,28.318 L18.662,28.304 L18.55,28.29 L18.368,28.388 C18.312,28.3506667 18.2093333,28.3086667 18.06,28.262 C17.8546667,28.2433333 17.7193333,28.234 17.654,28.234 L17.542,28.234 C17.4766667,28.2246667 17.4066667,28.22 17.332,28.22 C17.2573333,28.22 17.1826667,28.2386667 17.108,28.276 L16.912,28.15 L16.8,28.122 C16.772,28.122 16.7206667,28.108 16.646,28.08 C16.3006667,28.0426667 16.128,27.7533333 16.128,27.212 L16.128,27.086 L16.394,26.89 L16.73,26.764 L16.982,26.89 L17.178,26.89 L17.178,26.932 C17.2713333,26.9693333 17.346,27.044 17.402,27.156 L17.514,27.17 L17.514,27.352 L17.696,27.394 L17.738,27.422 L19.53,27.31 L19.964,27.24 L20.006,27.24 L20.034,27.17 L20.23,27.142 L20.258,27.1 C20.454,27.072 20.636,27.016 20.804,26.932 L20.818,26.862 C20.8086667,26.8526667 20.79,26.82 20.762,26.764 L20.692,26.778 L20.51,26.638 L20.384,26.638 L20.314,26.54 L20.356,26.484 L20.202,26.512 L20.09,26.386 C20.062,26.3953333 20.0153333,26.4 19.95,26.4 C19.8286667,26.4 19.7073333,26.3766667 19.586,26.33 L19.46,26.33 L19.362,26.288 L19.166,26.358 L19.054,26.232 L19.012,26.232 L18.816,26.078 L18.382,25.91 L18.242,25.798 L17.71,25.7 L17.654,25.602 L17.262,25.35 L17.052,24.888 L16.884,24.65 L16.828,23.922 L16.884,23.838 C16.9026667,23.6233333 16.9773333,23.4366667 17.108,23.278 C17.248,23.2033333 17.318,23.096 17.318,22.956 L17.528,22.914 C17.5653333,22.8393333 17.64,22.7693333 17.752,22.704 L17.962,22.536 L18.844,22.2 L18.998,22.158 L19.278,22.13 L19.74,22.004 L20.622,22.06 L20.65,22.13 C20.734,22.158 20.8273333,22.2326667 20.93,22.354 L20.93,22.424 L21.154,22.564 L21.056,22.9 L21.028,23.026 C20.972,23.2593333 20.8413333,23.376 20.636,23.376 C20.468,23.376 20.342,23.2966667 20.258,23.138 L20.258,23.096 L20.09,23.082 L19.894,23.138 L19.712,23.012 L19.614,23.082 C19.4926667,23.082 19.3806667,23.1193333 19.278,23.194 C19.138,23.194 19.0026667,23.25 18.872,23.362 L18.69,23.362 L18.564,23.46 L18.368,23.502 L18.34,23.53 L18.256,23.572 L18.13,23.698 L18.088,23.712 L17.962,23.908 L17.808,23.992 C17.7706667,24.1133333 17.7473333,24.216 17.738,24.3 C17.7473333,24.4306667 17.7636667,24.517 17.787,24.559 C17.8103333,24.601 17.8733333,24.6453333 17.976,24.692 L17.976,24.762 L18.158,24.86 C18.3073333,24.916 18.4193333,24.9766667 18.494,25.042 L18.774,25.042 L18.956,25.196 L19.278,25.238 L19.404,25.322 L19.95,25.476 L20.02,25.63 L20.076,25.532 C20.1973333,25.532 20.3606667,25.588 20.566,25.7 L20.818,25.742 L20.846,25.84 L21.07,25.84 L21.462,26.064 C21.5086667,26.1853333 21.6113333,26.2973333 21.77,26.4 L21.924,26.498 L21.882,26.666 C21.9473333,26.7593333 21.98,26.8573333 21.98,26.96 L21.98,27.002 Z" id="Path"></path>
            <path d="M27.426,23.124 C27.426,23.208 27.342,23.2873333 27.174,23.362 C27.1366667,23.4086667 27.0666667,23.4506667 26.964,23.488 C26.8333333,23.544 26.74,23.5906667 26.684,23.628 L26.39,23.53 C26.2406667,23.642 26.0493333,23.698 25.816,23.698 L25.648,23.656 L25.522,23.768 L25.144,23.768 L24.906,23.922 C24.8033333,23.8846667 24.7053333,23.866 24.612,23.866 C24.584,23.8846667 24.5186667,23.9033333 24.416,23.922 C24.3693333,23.922 24.318,23.908 24.262,23.88 L24.22,24.412 L24.234,24.804 L24.192,25.294 L24.22,25.826 L24.262,26.078 L24.262,26.274 L24.458,26.694 C24.43,26.722 24.416,26.7546667 24.416,26.792 C24.416,26.8573333 24.5186667,26.9086667 24.724,26.946 L24.752,27.114 L24.85,27.156 L25.018,27.268 L25.13,27.352 C25.2233333,27.3333333 25.2886667,27.324 25.326,27.324 C25.41,27.324 25.494,27.338 25.578,27.366 C25.6153333,27.3473333 25.6946667,27.282 25.816,27.17 C25.9,27.0953333 25.9793333,27.058 26.054,27.058 C26.0633333,27.058 26.0773333,27.058 26.096,27.058 C26.1146667,27.0673333 26.1286667,27.072 26.138,27.072 C26.222,26.8946667 26.3713333,26.778 26.586,26.722 C26.782,26.722 26.9453333,26.7826667 27.076,26.904 L27.076,27.002 C27.076,27.3193333 26.964,27.52 26.74,27.604 C26.656,27.8 26.4786667,27.926 26.208,27.982 L26.04,28.136 L25.858,28.136 L25.536,28.22 C25.4613333,28.2386667 25.354,28.248 25.214,28.248 C25.1393333,28.248 25.06,28.2293333 24.976,28.192 L24.794,28.192 L24.304,27.926 L24.178,27.884 L23.884,27.492 L23.716,27.31 L23.408,26.61 L23.296,25.952 L23.324,25.784 L23.212,25.63 L23.282,25.434 L23.212,25.126 L23.31,25.028 L23.338,24.846 L23.296,24.678 L23.324,24.426 L23.268,24.202 L23.338,24.132 L23.338,23.908 L23.24,23.866 L22.974,23.922 L22.722,23.74 L22.68,23.74 C22.4,23.74 22.26,23.5906667 22.26,23.292 L22.26,23.25 L22.092,22.984 L22.358,22.732 L22.708,22.788 L22.89,22.76 L23.156,22.83 L23.45,22.83 L23.45,22.55 L23.268,22.158 L23.45,22.06 L23.38,21.85 L23.394,21.416 L23.282,21.234 C23.2166667,21.1313333 23.184,21.038 23.184,20.954 C23.184,20.8513333 23.2073333,20.7673333 23.254,20.702 L23.296,20.506 L23.408,20.394 C23.66,20.3473333 23.828,20.324 23.912,20.324 C24.2106667,20.324 24.374,20.4593333 24.402,20.73 L24.36,20.8 C24.416,20.884 24.444,20.9633333 24.444,21.038 C24.444,21.0473333 24.4393333,21.0706667 24.43,21.108 L24.402,21.192 L24.388,21.29 L24.444,21.472 L24.43,21.542 L24.458,21.738 L24.332,21.906 L24.402,22.186 L24.346,22.522 L24.458,22.648 L24.346,22.9 L24.78,22.844 L25.55,22.914 L26.166,22.816 L26.376,22.83 L26.446,22.816 L26.992,22.816 C27.2813333,22.816 27.426,22.9186667 27.426,23.124 Z" id="Path"></path>
            <path d="M39.41,27.338 C39.41,27.45 39.326,27.5853333 39.158,27.744 L39.046,27.786 L38.948,27.912 L38.696,27.982 C38.6493333,28.0473333 38.6026667,28.08 38.556,28.08 C38.5466667,28.08 38.5373333,28.0753333 38.528,28.066 C38.5093333,28.066 38.4953333,28.066 38.486,28.066 C38.2806667,28.1686667 38.0333333,28.22 37.744,28.22 L37.632,28.22 L37.282,28.15 L37.044,28.038 L36.512,27.59 L36.4,27.212 L36.176,27.03 C36.204,26.9926667 36.218,26.932 36.218,26.848 C36.218,26.792 36.1806667,26.6986667 36.106,26.568 L36.148,26.232 L36.148,26.176 C36.148,26.064 36.1153333,25.9193333 36.05,25.742 L36.134,25.322 L35.952,25.686 L35.742,25.714 L35.714,26.008 C35.6393333,26.0453333 35.5506667,26.064 35.448,26.064 L35.294,26.4 L35.112,26.61 C35.0373333,26.694 34.972,26.7406667 34.916,26.75 L34.874,26.778 L34.37,27.296 L34.314,27.296 L34.048,27.604 L33.796,27.73 L33.656,27.912 L33.334,28.01 L32.872,28.192 L32.592,28.052 C32.4053333,28.052 32.2746667,27.968 32.2,27.8 L32.074,27.73 C32.074,27.702 32.0786667,27.6646667 32.088,27.618 C32.088,27.5713333 32.088,27.5386667 32.088,27.52 L31.864,27.324 L31.92,27.24 L31.752,26.848 L31.808,26.792 L31.78,26.764 C31.78,26.7453333 31.78,26.7173333 31.78,26.68 C31.7706667,26.652 31.766,26.6286667 31.766,26.61 C31.766,26.5073333 31.78,26.4093333 31.808,26.316 L31.822,25.952 L31.766,25.658 C31.8126667,25.5833333 31.836,25.518 31.836,25.462 C31.836,25.3966667 31.808,25.336 31.752,25.28 L31.906,25.168 L31.906,25 L31.85,24.538 L32.004,23.642 C32.004,23.4926667 31.962,23.2733333 31.878,22.984 C31.906,22.6853333 32.102,22.522 32.466,22.494 L32.578,22.536 L32.774,22.564 L33.026,22.844 L32.942,23.208 L32.914,23.81 L32.956,24.272 L32.872,24.44 L32.914,24.552 L32.844,24.776 L32.844,24.916 L32.816,24.958 C32.8253333,24.986 32.83,25.028 32.83,25.084 C32.83,25.2053333 32.8113333,25.3313333 32.774,25.462 L32.844,25.56 L32.788,25.77 L32.816,25.938 L32.816,26.134 C32.8626667,26.19 32.886,26.26 32.886,26.344 C32.886,26.4186667 32.8673333,26.4933333 32.83,26.568 L32.83,26.624 C32.8766667,26.7826667 32.9,26.8853333 32.9,26.932 L33.026,27.058 C33.082,27.0206667 33.1473333,26.974 33.222,26.918 C33.25,26.8246667 33.3153333,26.764 33.418,26.736 L33.418,26.596 C33.474,26.596 33.5626667,26.582 33.684,26.554 L33.712,26.428 L33.95,26.33 L33.992,26.288 C34.0573333,26.2226667 34.1646667,26.162 34.314,26.106 L34.314,26.05 L34.58,25.854 C34.6453333,25.6766667 34.762,25.56 34.93,25.504 C35.0326667,25.4013333 35.1026667,25.3406667 35.14,25.322 L35.322,25.084 L35.322,25.042 L35.378,25.014 L35.504,24.958 L35.574,24.762 L35.868,24.636 L35.924,24.622 C35.924,24.622 35.9566667,24.5893333 36.022,24.524 L36.022,24.398 L36.106,24.37 C36.134,24.2206667 36.2086667,24.1086667 36.33,24.034 L36.54,23.558 L36.61,23.306 L36.638,23.25 L36.694,23.25 L36.792,23.18 L36.708,23.152 C36.8106667,22.984 36.89,22.8066667 36.946,22.62 L37.352,22.606 L37.674,22.872 L37.814,23.096 L37.66,23.698 L37.45,23.978 L37.282,24.524 L37.142,24.608 L37.142,24.818 L37.058,24.972 L37.1,25.224 L36.988,25.322 L37.044,25.77 L37.072,26.4 L37.142,26.4 L37.142,26.764 L37.338,27.002 L37.52,27.1 L37.534,27.17 C37.5993333,27.1793333 37.6786667,27.2026667 37.772,27.24 L38.122,27.268 L38.332,27.212 L38.71,27.03 C38.7846667,26.9926667 38.878,26.974 38.99,26.974 C39.27,26.974 39.41,27.0953333 39.41,27.338 Z" id="Path"></path>
            <path d="M45.486,27.002 L45.318,27.198 L45.164,27.562 L45.052,27.646 L44.954,27.842 L44.674,27.87 L44.492,28.052 L44.212,28.052 L44.044,28.192 L43.89,28.15 L43.708,28.192 L43.708,28.304 L43.19,28.262 L42.966,28.276 L42.798,28.36 L42.658,28.276 C42.7513333,28.2666667 42.826,28.262 42.882,28.262 C42.8073333,28.2713333 42.5833333,28.29 42.21,28.318 L42.168,28.304 L42.056,28.29 L41.874,28.388 C41.818,28.3506667 41.7153333,28.3086667 41.566,28.262 C41.3606667,28.2433333 41.2253333,28.234 41.16,28.234 L41.048,28.234 C40.9826667,28.2246667 40.9126667,28.22 40.838,28.22 C40.7633333,28.22 40.6886667,28.2386667 40.614,28.276 L40.418,28.15 L40.306,28.122 C40.278,28.122 40.2266667,28.108 40.152,28.08 C39.8066667,28.0426667 39.634,27.7533333 39.634,27.212 L39.634,27.086 L39.9,26.89 L40.236,26.764 L40.488,26.89 L40.684,26.89 L40.684,26.932 C40.7773333,26.9693333 40.852,27.044 40.908,27.156 L41.02,27.17 L41.02,27.352 L41.202,27.394 L41.244,27.422 L43.036,27.31 L43.47,27.24 L43.512,27.24 L43.54,27.17 L43.736,27.142 L43.764,27.1 C43.96,27.072 44.142,27.016 44.31,26.932 L44.324,26.862 C44.3146667,26.8526667 44.296,26.82 44.268,26.764 L44.198,26.778 L44.016,26.638 L43.89,26.638 L43.82,26.54 L43.862,26.484 L43.708,26.512 L43.596,26.386 C43.568,26.3953333 43.5213333,26.4 43.456,26.4 C43.3346667,26.4 43.2133333,26.3766667 43.092,26.33 L42.966,26.33 L42.868,26.288 L42.672,26.358 L42.56,26.232 L42.518,26.232 L42.322,26.078 L41.888,25.91 L41.748,25.798 L41.216,25.7 L41.16,25.602 L40.768,25.35 L40.558,24.888 L40.39,24.65 L40.334,23.922 L40.39,23.838 C40.4086667,23.6233333 40.4833333,23.4366667 40.614,23.278 C40.754,23.2033333 40.824,23.096 40.824,22.956 L41.034,22.914 C41.0713333,22.8393333 41.146,22.7693333 41.258,22.704 L41.468,22.536 L42.35,22.2 L42.504,22.158 L42.784,22.13 L43.246,22.004 L44.128,22.06 L44.156,22.13 C44.24,22.158 44.3333333,22.2326667 44.436,22.354 L44.436,22.424 L44.66,22.564 L44.562,22.9 L44.534,23.026 C44.478,23.2593333 44.3473333,23.376 44.142,23.376 C43.974,23.376 43.848,23.2966667 43.764,23.138 L43.764,23.096 L43.596,23.082 L43.4,23.138 L43.218,23.012 L43.12,23.082 C42.9986667,23.082 42.8866667,23.1193333 42.784,23.194 C42.644,23.194 42.5086667,23.25 42.378,23.362 L42.196,23.362 L42.07,23.46 L41.874,23.502 L41.846,23.53 L41.762,23.572 L41.636,23.698 L41.594,23.712 L41.468,23.908 L41.314,23.992 C41.2766667,24.1133333 41.2533333,24.216 41.244,24.3 C41.2533333,24.4306667 41.2696667,24.517 41.293,24.559 C41.3163333,24.601 41.3793333,24.6453333 41.482,24.692 L41.482,24.762 L41.664,24.86 C41.8133333,24.916 41.9253333,24.9766667 42,25.042 L42.28,25.042 L42.462,25.196 L42.784,25.238 L42.91,25.322 L43.456,25.476 L43.526,25.63 L43.582,25.532 C43.7033333,25.532 43.8666667,25.588 44.072,25.7 L44.324,25.742 L44.352,25.84 L44.576,25.84 L44.968,26.064 C45.0146667,26.1853333 45.1173333,26.2973333 45.276,26.4 L45.43,26.498 L45.388,26.666 C45.4533333,26.7593333 45.486,26.8573333 45.486,26.96 L45.486,27.002 Z" id="Path"></path>
            <path d="M51.016,27.002 C51.016,27.114 50.932,27.254 50.764,27.422 C50.7173333,27.5713333 50.6473333,27.6926667 50.554,27.786 L50.47,27.8 L50.316,28.066 L50.064,28.108 L49.798,28.276 L49.658,28.528 L49.504,28.5 C49.4013333,28.5466667 49.3173333,28.5746667 49.252,28.584 L49.168,28.71 C49.14,28.7006667 49.098,28.696 49.042,28.696 C48.9206667,28.696 48.804,28.78 48.692,28.948 L48.496,28.78 C48.4586667,28.7893333 48.4026667,28.794 48.328,28.794 C48.2066667,28.794 48.104,28.7753333 48.02,28.738 L47.782,28.738 L47.67,28.668 C47.3153333,28.612 47.0913333,28.4766667 46.998,28.262 L46.998,28.22 L46.83,28.136 L46.746,27.898 L46.578,27.786 L46.578,27.576 L46.41,26.96 L46.438,26.456 L46.494,26.232 L46.494,25.938 L46.564,25.714 L46.55,25.616 L46.648,25.448 L46.62,25.476 C46.62,25.392 46.6433333,25.3033333 46.69,25.21 L46.69,25.14 L46.648,24.804 C46.648,24.6453333 46.718,24.5053333 46.858,24.384 C46.8673333,24.3653333 46.872,24.3373333 46.872,24.3 C46.872,24.2626667 46.8556667,24.1856667 46.823,24.069 C46.7903333,23.9523333 46.774,23.8706667 46.774,23.824 C46.774,23.712 46.802,23.5953333 46.858,23.474 C46.9326667,23.586 47.04,23.642 47.18,23.642 L47.222,23.642 C47.2406667,23.6046667 47.2826667,23.5626667 47.348,23.516 C47.4226667,23.2826667 47.5253333,23.0866667 47.656,22.928 L47.712,22.872 C47.712,22.8346667 47.74,22.7273333 47.796,22.55 L47.908,22.55 L47.936,22.48 L48.048,22.452 C48.0946667,22.3773333 48.125,22.333 48.139,22.319 C48.153,22.305 48.2533333,22.2466667 48.44,22.144 C48.4773333,22.0786667 48.5333333,22.018 48.608,21.962 C48.6453333,21.9433333 48.692,21.9246667 48.748,21.906 L48.804,21.822 C49.056,21.738 49.2146667,21.696 49.28,21.696 C49.3546667,21.696 49.4246667,21.7146667 49.49,21.752 L49.56,21.738 L49.658,21.794 C49.77,21.878 49.882,21.948 49.994,22.004 L50.232,22.186 L50.232,22.242 C50.4466667,22.41 50.554,22.648 50.554,22.956 L50.512,23.096 L50.554,23.558 L50.428,23.642 L50.288,24.006 L50.022,24.3 L50.008,24.524 C49.7093333,24.7386667 49.434,24.9113333 49.182,25.042 C49.098,25.1726667 48.9673333,25.238 48.79,25.238 L48.748,25.238 L48.482,25.406 L48.258,25.406 L47.922,25.546 L47.67,25.42 L47.642,25.42 C47.6233333,25.4946667 47.6046667,25.6066667 47.586,25.756 L47.474,25.84 L47.46,26.008 L47.376,26.246 C47.404,26.47 47.418,26.6146667 47.418,26.68 L47.362,26.722 C47.362,26.8433333 47.3573333,26.932 47.348,26.988 C47.348,26.9973333 47.3433333,27.0113333 47.334,27.03 C47.334,27.0486667 47.334,27.0626667 47.334,27.072 C47.334,27.1466667 47.3713333,27.2073333 47.446,27.254 C47.474,27.366 47.5206667,27.436 47.586,27.464 L47.684,27.548 L47.992,27.632 L47.992,27.674 L48.104,27.702 L48.58,27.73 L48.86,27.688 L49,27.59 L49.084,27.562 L49.224,27.352 L49.294,27.338 L49.644,27.226 C49.6813333,27.1606667 49.742,27.1046667 49.826,27.058 L49.868,26.988 C50.0546667,26.9506667 50.162,26.8526667 50.19,26.694 C50.3206667,26.5633333 50.4886667,26.498 50.694,26.498 L50.75,26.498 C50.9273333,26.7033333 51.016,26.8713333 51.016,27.002 Z M49.63,22.97 C49.63,22.942 49.616,22.886 49.588,22.802 L49.518,22.788 L49.49,22.802 C49.4806667,22.802 49.462,22.802 49.434,22.802 C49.4153333,22.8113333 49.3966667,22.816 49.378,22.816 C49.3686667,22.816 49.3546667,22.8113333 49.336,22.802 C49.3173333,22.802 49.3033333,22.802 49.294,22.802 L49.154,22.9 L49.028,22.914 L48.958,22.942 L48.72,23.25 L48.566,23.362 L48.342,23.754 L48.216,23.838 C48.188,23.9966667 48.1226667,24.132 48.02,24.244 L47.964,24.342 C48.0666667,24.2766667 48.1833333,24.244 48.314,24.244 L48.412,24.202 L48.454,24.076 L48.65,24.09 L48.762,23.922 L48.846,23.922 L49,23.978 L49.07,23.768 L49.168,23.768 L49.168,23.614 L49.35,23.572 L49.392,23.53 L49.42,23.404 L49.602,23.138 C49.6206667,23.0913333 49.63,23.0353333 49.63,22.97 Z" id="Shape"></path>
            <path d="M57.204,22.942 L57.092,23.404 L56.574,23.474 L56.294,23.656 L56.112,23.572 L55.916,23.684 L55.706,23.768 L55.566,23.866 L55.566,23.922 L55.272,24.062 L55.076,24.314 L54.978,24.314 C54.8286667,24.4726667 54.7213333,24.5706667 54.656,24.608 L54.46,24.93 L54.39,24.958 C54.362,25.0326667 54.3293333,25.1446667 54.292,25.294 L54.096,25.364 L54.012,25.532 L53.9,25.672 L53.872,25.882 L53.76,25.924 L53.76,26.134 L53.718,26.176 C53.746,26.2226667 53.7786667,26.274 53.816,26.33 L53.606,26.414 L53.578,26.596 L53.438,26.834 L53.522,27.016 L53.34,27.268 C53.3586667,27.3613333 53.368,27.4266667 53.368,27.464 C53.368,27.4733333 53.368,27.492 53.368,27.52 C53.3586667,27.548 53.354,27.5713333 53.354,27.59 L53.382,27.716 L53.62,27.968 L53.438,28.29 L53.27,28.416 L52.878,28.612 L52.36,28.402 L52.36,28.08 L52.304,27.954 L52.346,27.744 C52.3273333,27.5946667 52.318,27.4826667 52.318,27.408 C52.318,27.38 52.3226667,27.3426667 52.332,27.296 C52.332,27.2493333 52.332,27.2166667 52.332,27.198 L52.318,27.058 C52.2526667,26.9926667 52.22,26.918 52.22,26.834 C52.22,26.7593333 52.2526667,26.6753333 52.318,26.582 C52.318,26.5353333 52.3086667,26.3953333 52.29,26.162 L52.332,26.12 L52.29,25.938 L52.318,25.77 L52.29,25.672 L52.332,25.35 L52.248,25.21 L52.304,25.056 L52.248,24.874 C52.2573333,24.818 52.262,24.7433333 52.262,24.65 C52.262,24.51 52.2433333,24.4166667 52.206,24.37 L52.262,24.286 L52.206,24.034 L52.08,23.852 L52.15,23.628 L52.094,23.544 L52.038,23.208 L52.038,23.096 C51.9913333,23.04 51.968,22.97 51.968,22.886 C51.968,22.6993333 52.1733333,22.5406667 52.584,22.41 L52.934,22.48 L53.004,22.746 L53.144,22.928 L53.102,23.306 C53.13,23.4926667 53.1626667,23.698 53.2,23.922 L53.242,24.146 C53.2513333,24.1646667 53.2606667,24.216 53.27,24.3 C53.27,24.356 53.2466667,24.4166667 53.2,24.482 L53.242,24.762 L53.214,25.07 L53.158,25.21 L53.2,25.266 L53.228,25.406 C53.284,25.3406667 53.3166667,25.2706667 53.326,25.196 L53.382,24.986 C53.41,24.93 53.452,24.888 53.508,24.86 L53.564,24.65 L53.76,24.538 L53.788,24.37 L53.942,24.202 L54.054,23.992 C54.1753333,23.8613333 54.292,23.7773333 54.404,23.74 L54.432,23.698 L54.558,23.502 L54.698,23.474 L54.74,23.432 L54.796,23.348 L54.95,23.264 L55.034,23.166 L55.118,23.18 L55.23,23.124 L55.286,23.04 L55.454,22.956 L55.692,22.802 L56.028,22.69 C56.1586667,22.6713333 56.2286667,22.662 56.238,22.662 C56.238,22.6713333 56.238,22.676 56.238,22.676 C56.2286667,22.676 56.224,22.6806667 56.224,22.69 L56.238,22.69 C56.2753333,22.69 56.3313333,22.6713333 56.406,22.634 C56.4526667,22.5966667 56.518,22.578 56.602,22.578 C56.6393333,22.578 56.7046667,22.5873333 56.798,22.606 C57.0406667,22.6153333 57.176,22.7273333 57.204,22.942 Z" id="Path"></path>
            <path d="M59.514,21.682 L59.472,21.724 L59.43,21.962 L59.36,21.962 L59.318,22.116 L59.36,22.116 C59.3786667,22.228 59.3973333,22.312 59.416,22.368 L59.36,22.494 C59.3786667,22.5873333 59.388,22.6526667 59.388,22.69 C59.388,22.718 59.3786667,22.774 59.36,22.858 L59.332,22.984 L59.29,24.104 L59.374,24.244 L59.29,24.594 L59.374,24.888 L59.304,25.028 C59.332,25.1213333 59.346,25.2146667 59.346,25.308 L59.416,25.546 L59.332,25.588 L59.332,25.658 C59.332,25.742 59.3226667,25.8026667 59.304,25.84 L59.304,25.938 C59.248,26.19 59.1126667,26.316 58.898,26.316 C58.618,26.316 58.478,26.134 58.478,25.77 L58.478,25.504 L58.45,25.196 L58.366,24.916 L58.436,24.762 L58.366,24.622 L58.436,24.258 L58.296,24.202 L58.38,23.88 L58.352,23.754 L58.352,23.502 L58.324,23.432 L58.352,23.278 C58.352,23.2313333 58.3706667,23.1613333 58.408,23.068 L58.38,23.026 L58.38,22.942 L58.254,22.802 L58.408,22.592 L58.352,22.438 L58.394,22.298 C58.394,22.242 58.394,22.1766667 58.394,22.102 C58.3846667,22.0273333 58.38,21.9806667 58.38,21.962 C58.38,21.9246667 58.3846667,21.8826667 58.394,21.836 C58.394,21.7893333 58.394,21.7566667 58.394,21.738 C58.3753333,21.682 58.366,21.6446667 58.366,21.626 L58.324,21.57 C58.324,21.5326667 58.3426667,21.5046667 58.38,21.486 L58.338,21.43 L58.338,21.262 L58.198,21.136 L58.254,20.478 L58.66,20.534 L58.884,20.492 L59.402,20.646 L59.472,20.842 C59.4813333,20.898 59.486,20.9773333 59.486,21.08 C59.486,21.136 59.4813333,21.178 59.472,21.206 L59.43,21.29 L59.402,21.332 L59.514,21.682 Z M59.794,27.604 L59.752,27.8 C59.7333333,27.884 59.724,27.94 59.724,27.968 L59.36,28.234 L59.122,28.164 L58.912,28.262 L58.716,28.15 L58.422,28.15 L58.254,27.618 L58.366,27.268 L58.576,27.072 L58.632,27.058 L58.772,26.918 C58.912,26.9366667 59.0146667,26.96 59.08,26.988 C59.2293333,26.988 59.3366667,27.0113333 59.402,27.058 C59.3553333,27.086 59.3086667,27.1093333 59.262,27.128 L59.57,27.17 L59.668,27.352 L59.794,27.604 Z" id="Shape"></path>
        </g>
        <path id="Line" d="M66.1175687,41.6485846 L66.6061672,41.7547518 C80.778938,44.834342 87.9324395,52.6112533 87.9324395,65 C87.9324395,70.5713864 85.7749697,77.519645 81.4636851,85.8726711 L78.503,91.181 L84.7029558,87.381929 L85.1292637,87.1206598 L85.651802,87.9732757 L85.2254941,88.2345448 L77.3995213,93.0308089 L76.6416405,93.4952874 L76.6382557,92.6064049 L76.6033038,83.4276916 L76.6013999,82.9276952 L77.6013926,82.9238873 L77.6032966,83.4238837 L77.631,90.692 L80.5826514,85.3998905 C84.8195943,77.1903467 86.9324395,70.3858043 86.9324395,65 C86.9324395,53.1110714 80.1309813,45.716883 66.3938328,42.7319489 L65.9052343,42.6257817 L66.1175687,41.6485846 Z" fill="#000000" fill-rule="nonzero"></path>
    </g>
</svg>