<?xml version="1.0" encoding="UTF-8"?>
<svg width="10px" height="9px" viewBox="0 0 10 9" version="1.1" xmlns="http://www.w3.org/2000/svg" xmlns:xlink="http://www.w3.org/1999/xlink">
    <title>online</title>
    <g id="Page-1" stroke="none" stroke-width="1" fill="none" fill-rule="evenodd">
        <g id="online" transform="translate(1.000000, 0.500000)" fill="#FFFFFF" fill-rule="nonzero" stroke="#FFFFFF">
            <path d="M7.8130522,0.0860705801 C7.6088601,-0.0589685299 7.326527,-0.0165596599 7.1739567,0.18206824 L2.83228472,5.947261 L0.807000763,3.60331818 C0.641959263,3.41489968 0.357455893,3.39074929 0.163016463,3.54865284 C0.0704521932,3.62290412 0.0121914932,3.73170897 0.00170525323,3.84990979 C-0.00878097677,3.96811061 0.0294152432,4.08547268 0.107462263,4.1748598 L2.50740375,6.9525699 C2.59535919,7.0535696 2.72279927,7.1114527 2.85672857,7.11123392 L2.87183932,7.1107882 C3.01137455,7.107079 3.14167716,7.040211 3.2260529,6.9290149 L7.9117165,0.70694433 C7.9831108,0.61223702 8.0128862,0.49255206 7.9941905,0.37543205 C7.9754949,0.25831205 7.9099386,0.15384467 7.8126078,0.0860705801" id="Path"></path>
        </g>
    </g>
</svg>