<?xml version="1.0" encoding="UTF-8"?>
<svg width="100px" height="100px" viewBox="0 0 100 100" version="1.1" xmlns="http://www.w3.org/2000/svg" xmlns:xlink="http://www.w3.org/1999/xlink">
    <title>assets/icon</title>
    <g id="/assets/icon" stroke="none" stroke-width="1" fill="none" fill-rule="evenodd">
        <g id="72c229a3713da69998deeb3db065b233" fill="#000000" fill-rule="nonzero">
            <g id="Group" transform="translate(49.990840, 50.000000) scale(-1, 1) rotate(-180.000000) translate(-49.990840, -50.000000) translate(0.000000, 0.000000)">
                <path d="M43.4034173,99.5828127 C13.9454697,95.5488471 -5.72444898,66.6224361 1.49975714,37.977607 C5.43986222,22.2477934 17.1040832,9.17668355 32.4584543,3.26652594 C62.1663569,-8.2099738 95.3144547,11.8037603 99.5667483,43.7632972 C102.537641,66.1531331 89.3104365,88.1685467 67.732699,96.7363878 C60.5401198,99.5828127 51.2836275,100.676493 43.4034173,99.5828127 Z M51.1591602,96.924109 C52.5354423,95.6416875 54.0361918,91.8270699 55.2869864,86.6045433 C55.9746174,83.6020241 57.1631784,76.8165143 57.0070841,76.66042 C56.7571292,76.3788382 48.0005467,76.2227439 45.5305844,76.4104651 L42.8412739,76.66042 L42.9973682,77.7857271 C43.4350443,80.9127136 45.0296544,88.3552477 45.7805392,90.7007426 C47.1568214,95.0479171 48.6891979,97.5495063 49.9705992,97.5495063 C50.252181,97.5495063 50.7837177,97.2679245 51.1591602,96.924109 Z M45.4989574,96.5486666 C43.27895,91.6077218 42.0587621,87.3860349 40.965082,80.7249924 C40.6212665,78.7865668 40.3080577,77.1287028 40.2141971,77.0664692 C39.9958692,76.8165143 33.6786422,78.0673089 30.3323075,79.0048947 L27.4552758,79.8180133 L28.6122098,81.8819264 C32.4268274,88.7612968 37.6187473,93.9215898 42.9973682,96.1415972 C45.0296544,96.9873629 45.7489123,97.1118302 45.4989574,96.5486666 Z M56.8183427,96.1742444 C60.8217016,94.5480073 64.8556673,91.2332996 68.1071212,86.8861251 C69.9210794,84.4467695 72.1727138,80.6627587 72.1727138,80.0689884 C72.1727138,79.5374517 66.6063717,78.0673089 60.8217016,77.0664692 C59.4454195,76.847121 59.6015137,76.5665594 58.8822558,81.1320618 C58.600674,83.0398806 57.9436497,86.1668672 57.44374,88.1369197 C56.6622484,91.139439 56.1613184,92.5463278 54.442241,96.5486666 C54.1922861,97.1118302 54.7554497,97.0179696 56.8183427,96.1742444 Z M35.4609735,94.2664255 C32.4584543,91.7964632 28.6122098,86.8861251 26.3605755,82.5399709 C25.8606657,81.6013648 25.4219694,80.7576396 25.3597357,80.6954059 C25.1720145,80.3832174 17.0724562,84.1039743 17.1979438,84.4477898 C17.354038,84.8538389 21.5757249,88.2624073 23.4835438,89.5132019 C26.3605755,91.4210208 30.3945412,93.453307 33.4899008,94.610241 C35.0845109,95.1734046 36.5546537,95.6416875 36.7729816,95.6733144 C37.0239567,95.6733144 36.4301863,95.0479171 35.4609735,94.2664255 Z M66.1380889,94.7041016 C69.4211697,93.5471676 73.3929017,91.5454881 76.4576546,89.5132019 C78.709289,88.0124524 82.7432546,84.7283514 82.7749747,84.3845359 C82.8065085,84.0407204 74.7691839,80.4444308 74.5498357,80.6943857 C74.4876021,80.7566193 74.049926,81.6013648 73.5806229,82.5389507 C71.5167098,86.6045433 67.514371,91.763816 64.4802249,94.2654053 C63.5110121,95.0468969 62.8856148,95.672296 63.041709,95.672296 C63.2294303,95.6733144 64.6057124,95.2356383 66.1380889,94.7041016 Z M17.5417593,81.2259224 C18.6048327,80.6943857 20.5442785,79.8190335 21.8573068,79.2874968 L24.2344287,78.318284 L23.0458677,75.1912974 C20.856467,69.4688611 19.3240906,61.8692125 18.8241808,54.4899323 L18.6048327,51.2690852 L10.4746676,51.2690852 L2.37510933,51.2690852 L2.59445749,53.7084408 C3.34534235,62.0895809 6.0346528,69.8136968 10.5062946,76.5369729 C12.2263922,79.101816 14.853469,82.2288026 15.2911451,82.2288026 C15.4472394,82.2267621 16.4786859,81.789086 17.5417593,81.2259224 Z M86.4640115,80.5066645 C92.4996567,73.4701796 96.4081348,63.8698718 97.3773476,53.550306 L97.5966958,51.2670447 L89.4665308,51.2670447 L81.3363657,51.2670447 L80.9925503,55.7386865 C80.3977597,63.1189869 78.6154283,71.1246846 76.4586748,76.4400516 L75.6771832,78.2846166 L78.3981206,79.4099237 C79.8672432,80.035321 81.806689,80.9106732 82.6514345,81.3799762 C83.5267867,81.8176523 84.3715321,82.1930947 84.5898601,82.2247257 C84.7755408,82.2267621 85.6202863,81.4452705 86.4640115,80.5066645 Z M31.0515654,76.2543708 C32.9593843,75.7850678 35.6486947,75.1596705 37.0872106,74.9097156 C38.5257264,74.6903675 39.776521,74.4098059 39.8703816,74.3159453 C39.9326153,74.2220846 39.8703816,72.6274745 39.6826604,70.7512826 C39.2449843,66.5612227 38.7134476,57.3047303 38.7134476,53.864535 L38.7134476,51.268065 L29.9262583,51.268065 L21.1074421,51.268065 L21.3257701,54.6450064 C21.7634462,61.2121882 23.2335889,68.8424435 25.1097809,74.0955769 C26.2667149,77.316424 26.4544361,77.6296328 27.0798334,77.3786577 C27.3614152,77.2541904 29.1753735,76.7542806 31.0515654,76.2543708 Z M74.5814627,74.6903675 C76.5831421,69.4678408 78.1155186,61.6192576 78.6154283,54.4889121 L78.8347765,51.268065 L70.0792142,51.268065 L61.3236518,51.268065 L61.1043037,57.3037101 C60.9798363,60.5867909 60.6982545,65.7470839 60.4166727,68.7496031 C59.9167629,74.629154 59.9473697,74.7219944 61.511373,74.7219944 C62.4805858,74.7219944 68.985534,76.1921372 71.2055415,76.9113951 C72.1747543,77.2246039 73.1133603,77.4429318 73.2694546,77.4113049 C73.4551354,77.3796779 74.018299,76.1605102 74.5814627,74.6903675 Z M57.4753669,73.7833883 C57.4753669,73.6895277 57.6947151,71.3756597 57.94467,68.6230954 C58.1640181,65.8715512 58.4762067,60.8367458 58.6016942,57.4587842 L58.8210424,51.2670447 L49.9705992,51.2670447 L41.1211763,51.2670447 L41.3405244,57.3965505 C41.466012,60.7734919 41.7475938,65.8082974 41.9975487,68.5914684 C42.2475036,71.3430125 42.4668517,73.6885075 42.4668517,73.7823681 C42.4668517,73.8762287 45.8437931,73.9384747 49.9716194,73.9384747 C54.0984255,73.9394826 57.4753669,73.8772489 57.4753669,73.7833883 Z M18.8241808,45.5762353 C19.3240906,38.1020743 20.9503276,30.2218641 23.170335,24.4994277 L24.2334084,21.7162567 L22.7948926,21.153093 C22.013401,20.8398843 19.9800946,19.9329051 18.2610172,19.1208068 L15.1656576,17.6506641 L13.6649081,19.3391348 C7.66088985,26.0318042 3.50143662,36.1636487 2.59445749,46.3577269 L2.37510933,48.7654555 L10.4746676,48.7654555 L18.6048327,48.7654555 L18.8241808,45.5762353 Z M38.7124274,46.0455383 C38.7124274,42.5747363 39.2123372,33.6936864 39.6816402,29.2842783 C39.8693614,27.4080864 39.963222,25.844083 39.8999681,25.7818493 C39.8377345,25.7196156 37.9615425,25.2809193 35.7405149,24.8432432 C33.4888805,24.4371941 30.5496152,23.7169159 29.20496,23.3108668 C27.8286778,22.8731907 26.6095101,22.5916089 26.4840226,22.6854695 C26.0463465,22.9354244 24.2640152,28.2834385 23.357036,32.0358224 C22.2939626,36.5074642 21.6369384,40.8230117 21.3247498,45.420141 L21.1064219,48.7664757 L29.9252381,48.7664757 L38.7124274,48.7664757 L38.7124274,46.0455383 L38.7124274,46.0455383 Z M58.6016942,42.7624575 C58.413973,37.1961154 58.0701575,32.0674493 57.6008545,27.8151557 L57.4131333,26.0950581 L49.9389723,26.0950581 C45.8427729,26.0950581 42.4648113,26.1572917 42.4648113,26.2511523 C42.4648113,26.345013 42.2454631,28.6905079 41.9955082,31.442052 C41.7455533,34.2252231 41.4639715,39.2600285 41.338484,42.63697 L41.1191358,48.7664757 L49.9705992,48.7664757 L58.8200221,48.7664757 L58.6016942,42.7624575 Z M78.6154283,45.5762353 C78.2716129,40.5414299 77.5523549,35.8514602 76.3954209,31.4104251 C75.3945812,27.501947 73.9560654,23.2170062 73.4877825,22.7477031 C73.362295,22.6222156 72.0808936,22.8731907 70.6107509,23.3108668 C69.1406081,23.7485429 66.2013428,24.4371941 64.043569,24.8748702 C61.8857953,25.3125463 60.1034639,25.7196156 60.0412303,25.7502224 C60.0096033,25.812456 60.1656976,28.3140453 60.4166727,31.2849375 C60.6982545,34.2874568 60.9798363,39.4467295 61.1043037,42.7614373 L61.3236518,48.7654555 L70.0792142,48.7654555 L78.8347765,48.7654555 L78.6154283,45.5762353 Z M97.3783679,46.5148414 C96.7845975,40.2292413 95.0328729,33.7559201 92.5629106,28.8782291 C90.9683005,25.6890089 87.9974082,21.2163469 86.1834499,19.2156877 L84.7765611,17.6516843 L81.6812015,19.1218271 C79.9611038,19.9349456 77.9288176,20.8419247 77.1156991,21.1541133 L75.6771832,21.7172769 L76.4586748,23.5934688 C78.6164486,28.9098561 80.3987799,36.8839268 80.9925503,44.3264609 L81.3363657,48.7674959 L89.4665308,48.7674959 L97.5966958,48.7674959 L97.3783679,46.5148414 Z M55.5053144,23.5618419 L57.0999245,23.343514 L56.9438302,22.2171867 C56.1307117,16.338656 54.0351716,8.11361014 52.7221433,5.45592663 C51.9406517,3.89294347 50.6266032,2.48503435 49.9705992,2.48503435 C48.6881776,2.48503435 47.1558012,4.98662359 45.7805392,9.33379804 C45.0296544,11.679293 43.4350443,19.0902001 42.9973682,22.2488136 L42.809647,23.4057476 L44.1226753,23.5312352 C46.4365433,23.7179362 53.8168437,23.7495631 55.5053144,23.5618419 Z M40.4325251,22.4355146 C40.4947587,22.0294655 40.8079675,20.3093678 41.0895493,18.5892701 C41.8088072,14.0860014 43.27895,8.64514684 44.4981177,5.79872189 C45.0918881,4.42345995 45.4989574,3.23489899 45.4367238,3.1716451 C45.1867689,2.92169022 42.3413642,4.07862424 40.1519635,5.3610458 C36.1179978,7.73714749 31.5831021,12.7413462 28.5816031,18.1505738 L27.4562961,20.214487 L30.489422,21.0898391 C33.0848718,21.8090971 38.5573534,22.997658 39.8714019,23.0915186 C40.0887096,23.1241658 40.3386645,22.810957 40.4325251,22.4355146 Z M64.9495279,22.1539328 C68.8590263,21.3724412 72.173734,20.3716015 72.173734,19.9645321 C72.173734,19.3707617 69.9220997,15.5867509 68.1081414,13.1473953 C64.8556673,8.80124112 60.8217016,5.48551313 56.8193629,3.8602963 C54.0994457,2.73396901 54.0045649,2.82782962 55.1614989,5.23657847 C56.5061541,8.01974953 57.8824363,12.9913011 58.7261615,18.151594 C59.101604,20.4654621 59.4760262,22.5293752 59.5392801,22.7487234 C59.6647676,23.1863995 60.0085831,23.1547725 64.9495279,22.1539328 Z M26.2983418,17.6200573 C28.2683944,13.6177186 32.3962206,8.26970441 35.4609735,5.76811517 C36.4301863,4.98662359 37.0555836,4.36122628 36.8994894,4.36122628 C36.7117681,4.36122628 35.335486,4.79890238 33.8031095,5.33043908 C30.5200287,6.48737309 26.5482967,8.48905257 23.4835438,10.5213388 C21.0441882,12.1475758 17.1663168,15.3061893 17.1663168,15.7122385 C17.1346899,15.837726 17.7917141,16.2437752 18.6364596,16.6192176 C23.6090314,18.8086183 24.828199,19.3391348 25.1097809,19.3391348 C25.2975021,19.3717819 25.8290388,18.5892701 26.2983418,17.6200573 Z M77.051425,18.4637826 C80.5538539,16.9936398 82.8054883,15.8999597 82.7738614,15.6806115 C82.7422344,15.2735421 78.6766418,12.0220883 76.1444458,10.3642243 C74.7375569,9.4256182 72.5165293,8.14319664 71.235128,7.48719261 C69.0457273,6.39249226 63.760967,4.36020606 63.073336,4.36020606 C62.8856148,4.36020606 63.6364996,5.11109092 64.7312,6.04867677 C67.8898135,8.70636028 72.2675946,14.4614438 73.8622047,18.0567132 C74.1754135,18.7759711 74.5498357,19.3697491 74.6753233,19.3697491 C74.7997906,19.3717819 75.862864,18.9647126 77.051425,18.4637826 Z" id="Shape"></path>
            </g>
        </g>
    </g>
</svg>